%TF.GenerationSoftware,KiCad,Pcbnew,(6.0.7)*%
%TF.CreationDate,2023-01-04T15:29:54-05:00*%
%TF.ProjectId,PrototypeBoard,50726f74-6f74-4797-9065-426f6172642e,rev?*%
%TF.SameCoordinates,Original*%
%TF.FileFunction,Copper,L1,Top*%
%TF.FilePolarity,Positive*%
%FSLAX46Y46*%
G04 Gerber Fmt 4.6, Leading zero omitted, Abs format (unit mm)*
G04 Created by KiCad (PCBNEW (6.0.7)) date 2023-01-04 15:29:54*
%MOMM*%
%LPD*%
G01*
G04 APERTURE LIST*
%TA.AperFunction,SMDPad,CuDef*%
%ADD10R,2.350000X0.600000*%
%TD*%
%TA.AperFunction,ComponentPad*%
%ADD11R,2.000000X2.000000*%
%TD*%
%TA.AperFunction,ViaPad*%
%ADD12C,0.800000*%
%TD*%
%TA.AperFunction,Conductor*%
%ADD13C,0.762000*%
%TD*%
%TA.AperFunction,Conductor*%
%ADD14C,0.250000*%
%TD*%
%TA.AperFunction,Conductor*%
%ADD15C,1.016000*%
%TD*%
G04 APERTURE END LIST*
D10*
%TO.P,J1,2,+3.3Vaux*%
%TO.N,+5V*%
X91539412Y-111709558D03*
%TO.P,J1,4,GND*%
X91539412Y-110909558D03*
%TO.P,J1,6,+1.5V*%
X91539412Y-110109558D03*
%TO.P,J1,8,UIM_PWR*%
X91539412Y-109309558D03*
%TO.P,J1,10,UIM_DATA*%
X91539412Y-108509558D03*
%TO.P,J1,12,UIM_CLK*%
%TO.N,GND*%
X91539412Y-107709558D03*
%TO.P,J1,14,UIM_RESET*%
%TO.N,/SPK_RP*%
X91539412Y-106909558D03*
%TO.P,J1,16,UIM_VPP*%
%TO.N,/SPK_RN*%
X91539412Y-106109558D03*
%TO.P,J1,18,GND*%
%TO.N,/IO28*%
X91539412Y-102109558D03*
%TO.P,J1,20,~{W_DISABLE}*%
%TO.N,/IO29*%
X91539412Y-101309558D03*
%TO.P,J1,22,~{PERST}*%
%TO.N,/IO30*%
X91539412Y-100509558D03*
%TO.P,J1,24,+3.3Vaux*%
%TO.N,/IO31*%
X91539412Y-99709558D03*
%TO.P,J1,26,GND*%
%TO.N,/IO32*%
X91539412Y-98909558D03*
%TO.P,J1,28,+1.5V*%
%TO.N,/IO33*%
X91539412Y-98109558D03*
%TO.P,J1,30,SMB_CLK*%
%TO.N,/IO34*%
X91539412Y-97309558D03*
%TO.P,J1,32,SMB_DATA*%
%TO.N,/IO35*%
X91539412Y-96509558D03*
%TO.P,J1,34,GND*%
%TO.N,/IO36*%
X91539412Y-95709558D03*
%TO.P,J1,36,USB_D-*%
%TO.N,/IO37*%
X91539412Y-94909558D03*
%TO.P,J1,38,USB_D+*%
%TO.N,/IO38*%
X91539412Y-94109558D03*
%TO.P,J1,40,GND*%
%TO.N,/IO39*%
X91539412Y-93309558D03*
%TO.P,J1,42,~{LED_WWAN}*%
%TO.N,/IO40*%
X91539412Y-92509558D03*
%TO.P,J1,44,~{LED_WLAN}*%
%TO.N,/IO41*%
X91539412Y-91709558D03*
%TO.P,J1,46,~{LED_WPAN}*%
%TO.N,/IO42*%
X91539412Y-90909558D03*
%TO.P,J1,48,+1.5V*%
%TO.N,/IO43*%
X91539412Y-90109558D03*
%TO.P,J1,50,GND*%
%TO.N,/IO44*%
X91539412Y-89309558D03*
%TO.P,J1,52,+3.3Vaux*%
%TO.N,/IO45*%
X91539412Y-88509558D03*
%TD*%
D11*
%TO.P,J2,48*%
%TO.N,N/C*%
X177800000Y-71120000D03*
X121920000Y-71120000D03*
X144780000Y-71120000D03*
X165100000Y-71120000D03*
X129621070Y-71174005D03*
X134620000Y-71120000D03*
X139700000Y-71120000D03*
X111760000Y-71120000D03*
X132080000Y-71120000D03*
X114300000Y-71120000D03*
X142240000Y-71120000D03*
X124422847Y-71174005D03*
X147320000Y-71120000D03*
X157480000Y-71120000D03*
X152325695Y-71174005D03*
X126925695Y-71174005D03*
X119380000Y-71120000D03*
X137160000Y-71120000D03*
X162560000Y-71120000D03*
X155021070Y-71174005D03*
X160020000Y-71120000D03*
X149822847Y-71174005D03*
X167640000Y-71120000D03*
X172720000Y-71120000D03*
X170180000Y-71120000D03*
X116840000Y-71120000D03*
X175222847Y-71174005D03*
%TO.P,J2,47*%
X114300000Y-73660000D03*
X124422847Y-73714005D03*
X137160000Y-73660000D03*
X129621070Y-73714005D03*
X126925695Y-73714005D03*
X175222847Y-73714005D03*
X119380000Y-73660000D03*
X155021070Y-73714005D03*
X165100000Y-73660000D03*
X134620000Y-73660000D03*
X111760000Y-73660000D03*
X144780000Y-73660000D03*
X152325695Y-73714005D03*
X121920000Y-73660000D03*
X116840000Y-73660000D03*
X172720000Y-73660000D03*
X132080000Y-73660000D03*
X149822847Y-73714005D03*
X162560000Y-73660000D03*
X170180000Y-73660000D03*
X142240000Y-73660000D03*
X139700000Y-73660000D03*
X157480000Y-73660000D03*
X177800000Y-73660000D03*
X147320000Y-73660000D03*
X160020000Y-73660000D03*
X167640000Y-73660000D03*
%TO.P,J2,46*%
X144780000Y-76200000D03*
X121920000Y-76200000D03*
X119380000Y-76200000D03*
X134620000Y-76200000D03*
X175222847Y-76254005D03*
X129621070Y-76254005D03*
X142240000Y-76200000D03*
X170180000Y-76200000D03*
X172720000Y-76200000D03*
X177800000Y-76200000D03*
X139700000Y-76200000D03*
X137160000Y-76200000D03*
X116840000Y-76200000D03*
X149822847Y-76254005D03*
X132080000Y-76200000D03*
X165100000Y-76200000D03*
X162560000Y-76200000D03*
X147320000Y-76200000D03*
X124422847Y-76254005D03*
X114300000Y-76200000D03*
X152325695Y-76254005D03*
X111760000Y-76200000D03*
X167640000Y-76200000D03*
X126925695Y-76254005D03*
X157480000Y-76200000D03*
X160020000Y-76200000D03*
X155021070Y-76254005D03*
%TO.P,J2,45*%
X114300000Y-78740000D03*
X142240000Y-78740000D03*
X129621070Y-78794005D03*
X149822847Y-78794005D03*
X170180000Y-78740000D03*
X147320000Y-78740000D03*
X165100000Y-78740000D03*
X116840000Y-78740000D03*
X139700000Y-78740000D03*
X172720000Y-78740000D03*
X155021070Y-78794005D03*
X132080000Y-78740000D03*
X177800000Y-78740000D03*
X134620000Y-78740000D03*
X126925695Y-78794005D03*
X157480000Y-78740000D03*
X137160000Y-78740000D03*
X167640000Y-78740000D03*
X175222847Y-78794005D03*
X144780000Y-78740000D03*
X119380000Y-78740000D03*
X121920000Y-78740000D03*
X160020000Y-78740000D03*
X162560000Y-78740000D03*
X111760000Y-78740000D03*
X124422847Y-78794005D03*
X152325695Y-78794005D03*
%TO.P,J2,44*%
X114300000Y-81280000D03*
X157480000Y-81280000D03*
X149822847Y-81334005D03*
X124422847Y-81334005D03*
X167640000Y-81280000D03*
X175222847Y-81334005D03*
X126925695Y-81334005D03*
X134620000Y-81280000D03*
X162560000Y-81280000D03*
X155021070Y-81334005D03*
X147320000Y-81280000D03*
X132080000Y-81280000D03*
X119380000Y-81280000D03*
X144780000Y-81280000D03*
X121920000Y-81280000D03*
X177800000Y-81280000D03*
X165100000Y-81280000D03*
X116840000Y-81280000D03*
X152325695Y-81334005D03*
X111760000Y-81280000D03*
X129621070Y-81334005D03*
X142240000Y-81280000D03*
X139700000Y-81280000D03*
X137160000Y-81280000D03*
X160020000Y-81280000D03*
X172720000Y-81280000D03*
X170180000Y-81280000D03*
%TO.P,J2,43*%
X116840000Y-83820000D03*
X157480000Y-83820000D03*
X137160000Y-83820000D03*
X132080000Y-83820000D03*
X167640000Y-83820000D03*
X170180000Y-83820000D03*
X142240000Y-83820000D03*
X165100000Y-83820000D03*
X155021070Y-83874005D03*
X162560000Y-83820000D03*
X111760000Y-83820000D03*
X175222847Y-83874005D03*
X139700000Y-83820000D03*
X144780000Y-83820000D03*
X114300000Y-83820000D03*
X152325695Y-83874005D03*
X124422847Y-83874005D03*
X160020000Y-83820000D03*
X129621070Y-83874005D03*
X121920000Y-83820000D03*
X172720000Y-83820000D03*
X134620000Y-83820000D03*
X126925695Y-83874005D03*
X119380000Y-83820000D03*
X177800000Y-83820000D03*
X147320000Y-83820000D03*
X149822847Y-83874005D03*
%TO.P,J2,42*%
X172720000Y-86360000D03*
X137160000Y-86360000D03*
X149822847Y-86414005D03*
X114300000Y-86360000D03*
X167640000Y-86360000D03*
X175222847Y-86414005D03*
X160020000Y-86360000D03*
X177800000Y-86360000D03*
X170180000Y-86360000D03*
X119380000Y-86360000D03*
X132080000Y-86360000D03*
X142240000Y-86360000D03*
X155021070Y-86414005D03*
X152325695Y-86414005D03*
X162560000Y-86360000D03*
X121920000Y-86360000D03*
X116840000Y-86360000D03*
X129621070Y-86414005D03*
X144780000Y-86360000D03*
X157480000Y-86360000D03*
X126925695Y-86414005D03*
X111760000Y-86360000D03*
X147320000Y-86360000D03*
X124422847Y-86414005D03*
X165100000Y-86360000D03*
X139700000Y-86360000D03*
X134620000Y-86360000D03*
%TO.P,J2,41*%
X157480000Y-88900000D03*
X119380000Y-88900000D03*
X134620000Y-88900000D03*
X172720000Y-88900000D03*
X170180000Y-88900000D03*
X111760000Y-88900000D03*
X142240000Y-88900000D03*
X124422847Y-88954005D03*
X116840000Y-88900000D03*
X165100000Y-88900000D03*
X137160000Y-88900000D03*
X162560000Y-88900000D03*
X139700000Y-88900000D03*
X152325695Y-88954005D03*
X175222847Y-88954005D03*
X114300000Y-88900000D03*
X121920000Y-88900000D03*
X149822847Y-88954005D03*
X126925695Y-88954005D03*
X132080000Y-88900000D03*
X129621070Y-88954005D03*
X167640000Y-88900000D03*
X177800000Y-88900000D03*
X144780000Y-88900000D03*
X160020000Y-88900000D03*
X147320000Y-88900000D03*
X155021070Y-88954005D03*
%TO.P,J2,40*%
X152325695Y-91494005D03*
X116840000Y-91440000D03*
X147320000Y-91440000D03*
X111760000Y-91440000D03*
X162560000Y-91440000D03*
X142240000Y-91440000D03*
X157480000Y-91440000D03*
X155021070Y-91494005D03*
X167640000Y-91440000D03*
X119380000Y-91440000D03*
X139700000Y-91440000D03*
X175222847Y-91494005D03*
X132080000Y-91440000D03*
X177800000Y-91440000D03*
X172720000Y-91440000D03*
X170180000Y-91440000D03*
X137160000Y-91440000D03*
X121920000Y-91440000D03*
X114300000Y-91440000D03*
X144780000Y-91440000D03*
X149822847Y-91494005D03*
X134620000Y-91440000D03*
X126925695Y-91494005D03*
X160020000Y-91440000D03*
X124422847Y-91494005D03*
X165100000Y-91440000D03*
X129621070Y-91494005D03*
%TO.P,J2,39*%
X172720000Y-93980000D03*
X165100000Y-93980000D03*
X170180000Y-93980000D03*
X177800000Y-93980000D03*
X114300000Y-93980000D03*
X124422847Y-94034005D03*
X121920000Y-93980000D03*
X116840000Y-93980000D03*
X129621070Y-94034005D03*
X119380000Y-93980000D03*
X139700000Y-93980000D03*
X152325695Y-94034005D03*
X160020000Y-93980000D03*
X167640000Y-93980000D03*
X144780000Y-93980000D03*
X175222847Y-94034005D03*
X162560000Y-93980000D03*
X142240000Y-93980000D03*
X155021070Y-94034005D03*
X132080000Y-93980000D03*
X137160000Y-93980000D03*
X157480000Y-93980000D03*
X111760000Y-93980000D03*
X149822847Y-94034005D03*
X126925695Y-94034005D03*
X147320000Y-93980000D03*
X134620000Y-93980000D03*
%TO.P,J2,38*%
X167640000Y-96520000D03*
X157480000Y-96520000D03*
X152325695Y-96574005D03*
X177800000Y-96520000D03*
X121920000Y-96520000D03*
X172720000Y-96520000D03*
X129621070Y-96574005D03*
X144780000Y-96520000D03*
X134620000Y-96520000D03*
X116840000Y-96520000D03*
X124422847Y-96574005D03*
X160020000Y-96520000D03*
X119380000Y-96520000D03*
X170180000Y-96520000D03*
X137160000Y-96520000D03*
X149822847Y-96574005D03*
X155021070Y-96574005D03*
X175222847Y-96574005D03*
X111760000Y-96520000D03*
X114300000Y-96520000D03*
X162560000Y-96520000D03*
X139700000Y-96520000D03*
X132080000Y-96520000D03*
X165100000Y-96520000D03*
X147320000Y-96520000D03*
X126925695Y-96574005D03*
X142240000Y-96520000D03*
%TO.P,J2,37*%
X149822847Y-99114005D03*
X157480000Y-99060000D03*
X162560000Y-99060000D03*
X116840000Y-99060000D03*
X172720000Y-99060000D03*
X155021070Y-99114005D03*
X121920000Y-99060000D03*
X137160000Y-99060000D03*
X147320000Y-99060000D03*
X111760000Y-99060000D03*
X152325695Y-99114005D03*
X114300000Y-99060000D03*
X129621070Y-99114005D03*
X139700000Y-99060000D03*
X177800000Y-99060000D03*
X132080000Y-99060000D03*
X167640000Y-99060000D03*
X142240000Y-99060000D03*
X144780000Y-99060000D03*
X124422847Y-99114005D03*
X175222847Y-99114005D03*
X134620000Y-99060000D03*
X119380000Y-99060000D03*
X126925695Y-99114005D03*
X165100000Y-99060000D03*
X160020000Y-99060000D03*
X170180000Y-99060000D03*
%TO.P,J2,36*%
X111760000Y-101600000D03*
X149822847Y-101654005D03*
X132080000Y-101600000D03*
X126925695Y-101654005D03*
X121920000Y-101600000D03*
X142240000Y-101600000D03*
X157480000Y-101600000D03*
X165100000Y-101600000D03*
X134620000Y-101600000D03*
X124422847Y-101654005D03*
X175222847Y-101654005D03*
X162560000Y-101600000D03*
X116840000Y-101600000D03*
X137160000Y-101600000D03*
X129621070Y-101654005D03*
X172720000Y-101600000D03*
X155021070Y-101654005D03*
X160020000Y-101600000D03*
X177800000Y-101600000D03*
X167640000Y-101600000D03*
X147320000Y-101600000D03*
X114300000Y-101600000D03*
X152325695Y-101654005D03*
X170180000Y-101600000D03*
X119380000Y-101600000D03*
X139700000Y-101600000D03*
X144780000Y-101600000D03*
%TO.P,J2,35*%
X114300000Y-104140000D03*
X126925695Y-104194005D03*
X152325695Y-104194005D03*
X165100000Y-104140000D03*
X134620000Y-104140000D03*
X119380000Y-104140000D03*
X155021070Y-104194005D03*
X111760000Y-104140000D03*
X177800000Y-104140000D03*
X147320000Y-104140000D03*
X175222847Y-104194005D03*
X129621070Y-104194005D03*
X144780000Y-104140000D03*
X121920000Y-104140000D03*
X149822847Y-104194005D03*
X137160000Y-104140000D03*
X160020000Y-104140000D03*
X170180000Y-104140000D03*
X167640000Y-104140000D03*
X139700000Y-104140000D03*
X142240000Y-104140000D03*
X124422847Y-104194005D03*
X162560000Y-104140000D03*
X157480000Y-104140000D03*
X172720000Y-104140000D03*
X132080000Y-104140000D03*
X116840000Y-104140000D03*
%TO.P,J2,34*%
X175222847Y-106734005D03*
X139700000Y-106680000D03*
X134620000Y-106680000D03*
X126925695Y-106734005D03*
X111760000Y-106680000D03*
X147320000Y-106680000D03*
X124422847Y-106734005D03*
X116840000Y-106680000D03*
X160020000Y-106680000D03*
X144780000Y-106680000D03*
X132080000Y-106680000D03*
X155021070Y-106734005D03*
X162560000Y-106680000D03*
X119380000Y-106680000D03*
X167640000Y-106680000D03*
X165100000Y-106680000D03*
X137160000Y-106680000D03*
X177800000Y-106680000D03*
X114300000Y-106680000D03*
X152325695Y-106734005D03*
X172720000Y-106680000D03*
X157480000Y-106680000D03*
X170180000Y-106680000D03*
X129621070Y-106734005D03*
X121920000Y-106680000D03*
X149822847Y-106734005D03*
X142240000Y-106680000D03*
%TO.P,J2,33*%
X124422847Y-109274005D03*
X137160000Y-109220000D03*
X111760000Y-109220000D03*
X129621070Y-109274005D03*
X119380000Y-109220000D03*
X175222847Y-109274005D03*
X160020000Y-109220000D03*
X149822847Y-109274005D03*
X126925695Y-109274005D03*
X144780000Y-109220000D03*
X116840000Y-109220000D03*
X121920000Y-109220000D03*
X157480000Y-109220000D03*
X142240000Y-109220000D03*
X114300000Y-109220000D03*
X139700000Y-109220000D03*
X147320000Y-109220000D03*
X172720000Y-109220000D03*
X165100000Y-109220000D03*
X162560000Y-109220000D03*
X152325695Y-109274005D03*
X132080000Y-109220000D03*
X134620000Y-109220000D03*
X155021070Y-109274005D03*
X170180000Y-109220000D03*
X177800000Y-109220000D03*
X167640000Y-109220000D03*
%TO.P,J2,32*%
X162560000Y-111760000D03*
X126925695Y-111814005D03*
X132080000Y-111760000D03*
X157480000Y-111760000D03*
X155021070Y-111814005D03*
X134620000Y-111760000D03*
X175222847Y-111814005D03*
X160020000Y-111760000D03*
X139700000Y-111760000D03*
X116840000Y-111760000D03*
X121920000Y-111760000D03*
X152325695Y-111814005D03*
X142240000Y-111760000D03*
X167640000Y-111760000D03*
X165100000Y-111760000D03*
X129621070Y-111814005D03*
X137160000Y-111760000D03*
X170180000Y-111760000D03*
X124422847Y-111814005D03*
X119380000Y-111760000D03*
X147320000Y-111760000D03*
X172720000Y-111760000D03*
X177800000Y-111760000D03*
X111760000Y-111760000D03*
X114300000Y-111760000D03*
X144780000Y-111760000D03*
X149822847Y-111814005D03*
%TO.P,J2,31*%
X172720000Y-114300000D03*
X111760000Y-114300000D03*
X121920000Y-114300000D03*
X119380000Y-114300000D03*
X157480000Y-114300000D03*
X167640000Y-114300000D03*
X162560000Y-114300000D03*
X155021070Y-114354005D03*
X147320000Y-114300000D03*
X144780000Y-114300000D03*
X137160000Y-114300000D03*
X126925695Y-114354005D03*
X142240000Y-114300000D03*
X124422847Y-114354005D03*
X114300000Y-114300000D03*
X175222847Y-114354005D03*
X177800000Y-114300000D03*
X134620000Y-114300000D03*
X132080000Y-114300000D03*
X152325695Y-114354005D03*
X129621070Y-114354005D03*
X139700000Y-114300000D03*
X165100000Y-114300000D03*
X170180000Y-114300000D03*
X116840000Y-114300000D03*
X149822847Y-114354005D03*
X160020000Y-114300000D03*
%TO.P,J2,30*%
X149822847Y-116894005D03*
X142240000Y-116840000D03*
X116840000Y-116840000D03*
X155021070Y-116894005D03*
X126925695Y-116894005D03*
X129621070Y-116894005D03*
X137160000Y-116840000D03*
X132080000Y-116840000D03*
X139700000Y-116840000D03*
X152325695Y-116894005D03*
X160020000Y-116840000D03*
X114300000Y-116840000D03*
X144780000Y-116840000D03*
X119380000Y-116840000D03*
X170180000Y-116840000D03*
X124422847Y-116894005D03*
X121920000Y-116840000D03*
X162560000Y-116840000D03*
X157480000Y-116840000D03*
X172720000Y-116840000D03*
X111760000Y-116840000D03*
X177800000Y-116840000D03*
X147320000Y-116840000D03*
X134620000Y-116840000D03*
X175222847Y-116894005D03*
X165100000Y-116840000D03*
X167640000Y-116840000D03*
%TO.P,J2,29*%
X132080000Y-119380000D03*
X157480000Y-119380000D03*
X172720000Y-119380000D03*
X124422847Y-119434005D03*
X111760000Y-119380000D03*
X129621070Y-119434005D03*
X152325695Y-119434005D03*
X134620000Y-119380000D03*
X177800000Y-119380000D03*
X139700000Y-119380000D03*
X149822847Y-119434005D03*
X147320000Y-119380000D03*
X160020000Y-119380000D03*
X167640000Y-119380000D03*
X126925695Y-119434005D03*
X137160000Y-119380000D03*
X114300000Y-119380000D03*
X119380000Y-119380000D03*
X170180000Y-119380000D03*
X116840000Y-119380000D03*
X162560000Y-119380000D03*
X144780000Y-119380000D03*
X155021070Y-119434005D03*
X175222847Y-119434005D03*
X142240000Y-119380000D03*
X121920000Y-119380000D03*
X165100000Y-119380000D03*
%TO.P,J2,28*%
X172720000Y-121920000D03*
X152325695Y-121974005D03*
X157480000Y-121920000D03*
X147320000Y-121920000D03*
X139700000Y-121920000D03*
X149822847Y-121974005D03*
X134620000Y-121920000D03*
X114300000Y-121920000D03*
X175222847Y-121974005D03*
X162560000Y-121920000D03*
X137160000Y-121920000D03*
X142240000Y-121920000D03*
X170180000Y-121920000D03*
X124422847Y-121974005D03*
X160020000Y-121920000D03*
X116840000Y-121920000D03*
X167640000Y-121920000D03*
X165100000Y-121920000D03*
X132080000Y-121920000D03*
X129621070Y-121974005D03*
X144780000Y-121920000D03*
X111760000Y-121920000D03*
X126925695Y-121974005D03*
X155021070Y-121974005D03*
X121920000Y-121920000D03*
X177800000Y-121920000D03*
X119380000Y-121920000D03*
%TO.P,J2,27*%
X152325695Y-124514005D03*
X139700000Y-124460000D03*
X167640000Y-124460000D03*
X165100000Y-124460000D03*
X157480000Y-124460000D03*
X124422847Y-124514005D03*
X111760000Y-124460000D03*
X177800000Y-124460000D03*
X144780000Y-124460000D03*
X121920000Y-124460000D03*
X137160000Y-124460000D03*
X170180000Y-124460000D03*
X155021070Y-124514005D03*
X175222847Y-124514005D03*
X147320000Y-124460000D03*
X126925695Y-124514005D03*
X162560000Y-124460000D03*
X132080000Y-124460000D03*
X149822847Y-124514005D03*
X172720000Y-124460000D03*
X160020000Y-124460000D03*
X116840000Y-124460000D03*
X114300000Y-124460000D03*
X142240000Y-124460000D03*
X119380000Y-124460000D03*
X129621070Y-124514005D03*
X134620000Y-124460000D03*
%TO.P,J2,26*%
X170180000Y-127000000D03*
X165100000Y-127000000D03*
X162560000Y-127000000D03*
X114300000Y-127000000D03*
X132080000Y-127000000D03*
X134620000Y-127000000D03*
X177800000Y-127000000D03*
X129621070Y-127054005D03*
X121920000Y-127000000D03*
X160020000Y-127000000D03*
X172720000Y-127000000D03*
X149822847Y-127054005D03*
X137160000Y-127000000D03*
X157480000Y-127000000D03*
X116840000Y-127000000D03*
X155021070Y-127054005D03*
X147320000Y-127000000D03*
X139700000Y-127000000D03*
X142240000Y-127000000D03*
X124422847Y-127054005D03*
X175222847Y-127054005D03*
X126925695Y-127054005D03*
X111760000Y-127000000D03*
X152325695Y-127054005D03*
X167640000Y-127000000D03*
X119380000Y-127000000D03*
X144780000Y-127000000D03*
%TO.P,J2,25*%
X124422847Y-129594005D03*
X114300000Y-129540000D03*
X177800000Y-129540000D03*
X111760000Y-129540000D03*
X129621070Y-129594005D03*
X116840000Y-129540000D03*
X170180000Y-129540000D03*
X175222847Y-129594005D03*
X165100000Y-129540000D03*
X157480000Y-129540000D03*
X162560000Y-129540000D03*
X137160000Y-129540000D03*
X147320000Y-129540000D03*
X139700000Y-129540000D03*
X167640000Y-129540000D03*
X126925695Y-129594005D03*
X172720000Y-129540000D03*
X152325695Y-129594005D03*
X149822847Y-129594005D03*
X144780000Y-129540000D03*
X119380000Y-129540000D03*
X121920000Y-129540000D03*
X160020000Y-129540000D03*
X132080000Y-129540000D03*
X134620000Y-129540000D03*
X142240000Y-129540000D03*
X155021070Y-129594005D03*
%TO.P,J2,24,Pin_24*%
%TO.N,GND*%
X109220000Y-71120000D03*
%TO.P,J2,23,Pin_23*%
X109220000Y-73660000D03*
%TO.P,J2,22,Pin_22*%
%TO.N,/IO45*%
X109220000Y-76200000D03*
%TO.P,J2,21,Pin_21*%
%TO.N,/IO44*%
X109220000Y-78740000D03*
%TO.P,J2,20,Pin_20*%
%TO.N,/IO43*%
X109220000Y-81280000D03*
%TO.P,J2,19,Pin_19*%
%TO.N,/IO42*%
X109220000Y-83820000D03*
%TO.P,J2,18,Pin_18*%
%TO.N,/IO41*%
X109220000Y-86360000D03*
%TO.P,J2,17,Pin_17*%
%TO.N,/IO40*%
X109220000Y-88900000D03*
%TO.P,J2,16,Pin_16*%
%TO.N,/IO39*%
X109220000Y-91440000D03*
%TO.P,J2,15,Pin_15*%
%TO.N,/IO38*%
X109220000Y-93980000D03*
%TO.P,J2,14,Pin_14*%
%TO.N,/IO37*%
X109220000Y-96520000D03*
%TO.P,J2,13,Pin_13*%
%TO.N,/IO36*%
X109220000Y-99060000D03*
%TO.P,J2,12,Pin_12*%
%TO.N,/IO35*%
X109220000Y-101600000D03*
%TO.P,J2,11,Pin_11*%
%TO.N,/IO34*%
X109220000Y-104140000D03*
%TO.P,J2,10,Pin_10*%
%TO.N,/IO33*%
X109220000Y-106680000D03*
%TO.P,J2,9,Pin_9*%
%TO.N,/IO32*%
X109220000Y-109220000D03*
%TO.P,J2,8,Pin_8*%
%TO.N,/IO31*%
X109220000Y-111760000D03*
%TO.P,J2,7,Pin_7*%
%TO.N,/IO30*%
X109220000Y-114300000D03*
%TO.P,J2,6,Pin_6*%
%TO.N,/IO29*%
X109220000Y-116840000D03*
%TO.P,J2,5,Pin_5*%
%TO.N,/IO28*%
X109220000Y-119380000D03*
%TO.P,J2,4,Pin_4*%
%TO.N,/USB3_D_N*%
X109220000Y-121920000D03*
%TO.P,J2,3,Pin_3*%
%TO.N,/USB3_D_P*%
X109220000Y-124460000D03*
%TO.P,J2,2,Pin_2*%
%TO.N,+3.3V*%
X109220000Y-127000000D03*
%TO.P,J2,1,Pin_1*%
%TO.N,+5V*%
X109220000Y-129540000D03*
%TD*%
D12*
%TO.N,GND*%
X94335600Y-106629200D03*
X102489000Y-118821200D03*
X103708200Y-112725200D03*
X98475800Y-115417600D03*
X94615000Y-112090200D03*
X95681800Y-107721400D03*
%TO.N,+3.3V*%
X106680000Y-118719600D03*
%TD*%
D13*
%TO.N,+5V*%
X105591000Y-117554400D02*
X105591000Y-126787000D01*
X98146158Y-110109558D02*
X105591000Y-117554400D01*
X105591000Y-126787000D02*
X108344000Y-129540000D01*
X91539412Y-110109558D02*
X98146158Y-110109558D01*
D14*
%TO.N,GND*%
X95669958Y-107709558D02*
X95681800Y-107721400D01*
X95668242Y-107709558D02*
X95669958Y-107709558D01*
X91539412Y-107709558D02*
X95668242Y-107709558D01*
D15*
%TO.N,+3.3V*%
X108344000Y-127000000D02*
X109220000Y-127000000D01*
X106680000Y-125336000D02*
X108344000Y-127000000D01*
X106680000Y-118719600D02*
X106680000Y-125336000D01*
D14*
%TO.N,/IO28*%
X94386400Y-104546400D02*
X109220000Y-119380000D01*
X92964412Y-102109558D02*
X94386400Y-103531546D01*
X94386400Y-103531546D02*
X94386400Y-104546400D01*
X91539412Y-102109558D02*
X92964412Y-102109558D01*
%TO.N,/IO29*%
X109110000Y-116840000D02*
X93579558Y-101309558D01*
X93579558Y-101309558D02*
X91539412Y-101309558D01*
X109220000Y-116840000D02*
X109110000Y-116840000D01*
%TO.N,/IO30*%
X95429558Y-100509558D02*
X109220000Y-114300000D01*
X91539412Y-100509558D02*
X95429558Y-100509558D01*
%TO.N,/IO31*%
X97169558Y-99709558D02*
X109220000Y-111760000D01*
X91539412Y-99709558D02*
X97169558Y-99709558D01*
%TO.N,/IO32*%
X98909558Y-98909558D02*
X109220000Y-109220000D01*
X91539412Y-98909558D02*
X98909558Y-98909558D01*
%TO.N,/IO33*%
X91539412Y-98109558D02*
X100649558Y-98109558D01*
X100649558Y-98109558D02*
X109220000Y-106680000D01*
%TO.N,/IO34*%
X91539412Y-97309558D02*
X102389558Y-97309558D01*
X102389558Y-97309558D02*
X109220000Y-104140000D01*
%TO.N,/IO35*%
X104129558Y-96509558D02*
X109220000Y-101600000D01*
X91539412Y-96509558D02*
X104129558Y-96509558D01*
%TO.N,/IO36*%
X91539412Y-95709558D02*
X105869558Y-95709558D01*
X105869558Y-95709558D02*
X109220000Y-99060000D01*
%TO.N,/IO37*%
X107609558Y-94909558D02*
X109220000Y-96520000D01*
X91539412Y-94909558D02*
X107609558Y-94909558D01*
%TO.N,/IO38*%
X109090442Y-94109558D02*
X109220000Y-93980000D01*
X91539412Y-94109558D02*
X109090442Y-94109558D01*
%TO.N,/IO39*%
X91539412Y-93309558D02*
X107350442Y-93309558D01*
X107350442Y-93309558D02*
X109220000Y-91440000D01*
%TO.N,/IO40*%
X91539412Y-92509558D02*
X105610442Y-92509558D01*
X105610442Y-92509558D02*
X109220000Y-88900000D01*
%TO.N,/IO41*%
X91539412Y-91709558D02*
X103870442Y-91709558D01*
X103870442Y-91709558D02*
X109220000Y-86360000D01*
%TO.N,/IO42*%
X102130442Y-90909558D02*
X109220000Y-83820000D01*
X91539412Y-90909558D02*
X102130442Y-90909558D01*
%TO.N,/IO43*%
X91539412Y-90109558D02*
X100390442Y-90109558D01*
X100390442Y-90109558D02*
X109220000Y-81280000D01*
%TO.N,/IO44*%
X91539412Y-89309558D02*
X98650442Y-89309558D01*
X98650442Y-89309558D02*
X109220000Y-78740000D01*
%TO.N,/IO45*%
X91539412Y-88509558D02*
X96910442Y-88509558D01*
X96910442Y-88509558D02*
X109220000Y-76200000D01*
%TD*%
%TA.AperFunction,Conductor*%
%TO.N,+5V*%
G36*
X94709521Y-108363060D02*
G01*
X94756014Y-108416716D01*
X94767400Y-108469058D01*
X94767400Y-111055700D01*
X94747398Y-111123821D01*
X94693742Y-111170314D01*
X94641400Y-111181700D01*
X94519513Y-111181700D01*
X94513061Y-111183072D01*
X94513056Y-111183072D01*
X94426113Y-111201553D01*
X94332712Y-111221406D01*
X94326682Y-111224091D01*
X94326681Y-111224091D01*
X94164278Y-111296397D01*
X94164276Y-111296398D01*
X94158248Y-111299082D01*
X94003747Y-111411334D01*
X93875960Y-111553256D01*
X93780473Y-111718644D01*
X93721458Y-111900272D01*
X93701496Y-112090200D01*
X93721458Y-112280128D01*
X93723498Y-112286406D01*
X93776513Y-112449569D01*
X93778541Y-112520536D01*
X93741878Y-112581334D01*
X93678166Y-112612660D01*
X93654965Y-112614493D01*
X92709846Y-112601629D01*
X92706809Y-112601491D01*
X92704026Y-112601058D01*
X92668717Y-112601058D01*
X92667002Y-112601046D01*
X92639311Y-112600669D01*
X92639310Y-112600669D01*
X92634823Y-112600608D01*
X92632034Y-112600969D01*
X92628928Y-112601058D01*
X90798912Y-112601058D01*
X90730791Y-112581056D01*
X90684298Y-112527400D01*
X90672912Y-112475058D01*
X90672912Y-108644058D01*
X90692914Y-108575937D01*
X90746570Y-108529444D01*
X90798912Y-108518058D01*
X92762546Y-108518058D01*
X92824728Y-108511303D01*
X92961117Y-108460173D01*
X93077673Y-108372819D01*
X93078875Y-108374423D01*
X93131042Y-108345937D01*
X93157825Y-108343058D01*
X94641400Y-108343058D01*
X94709521Y-108363060D01*
G37*
%TD.AperFunction*%
%TD*%
%TA.AperFunction,Conductor*%
%TO.N,GND*%
G36*
X186840116Y-62313280D02*
G01*
X186863825Y-62316971D01*
X186878991Y-62314987D01*
X186883179Y-62314440D01*
X186905697Y-62313528D01*
X186952094Y-62315806D01*
X187206138Y-62328279D01*
X187218438Y-62329490D01*
X187381791Y-62353717D01*
X187545139Y-62377944D01*
X187557266Y-62380357D01*
X187877617Y-62460595D01*
X187889451Y-62464184D01*
X188200409Y-62575442D01*
X188211831Y-62580173D01*
X188510389Y-62721378D01*
X188521289Y-62727204D01*
X188804558Y-62896987D01*
X188814840Y-62903857D01*
X189080105Y-63100592D01*
X189089664Y-63108437D01*
X189334361Y-63330220D01*
X189343104Y-63338963D01*
X189564899Y-63583679D01*
X189572737Y-63593230D01*
X189769470Y-63858501D01*
X189776340Y-63868783D01*
X189946119Y-64152054D01*
X189951945Y-64162954D01*
X190093151Y-64461525D01*
X190097875Y-64472931D01*
X190209131Y-64783897D01*
X190212720Y-64795730D01*
X190254620Y-64963027D01*
X190292954Y-65116088D01*
X190295365Y-65128210D01*
X190304571Y-65190286D01*
X190343815Y-65454908D01*
X190345026Y-65467215D01*
X190359425Y-65760562D01*
X190358076Y-65786130D01*
X190356387Y-65796974D01*
X190357551Y-65805878D01*
X190360515Y-65828552D01*
X190361578Y-65844884D01*
X190361578Y-134753764D01*
X190360078Y-134773150D01*
X190356387Y-134796854D01*
X190357551Y-134805757D01*
X190357551Y-134805759D01*
X190358917Y-134816208D01*
X190359829Y-134838724D01*
X190349079Y-135057509D01*
X190345067Y-135139174D01*
X190343855Y-135151477D01*
X190304598Y-135416120D01*
X190295394Y-135478164D01*
X190292984Y-135490282D01*
X190254112Y-135645465D01*
X190212731Y-135810664D01*
X190209141Y-135822497D01*
X190097884Y-136133436D01*
X190093153Y-136144859D01*
X189951944Y-136443422D01*
X189946115Y-136454327D01*
X189776330Y-136737596D01*
X189769461Y-136747876D01*
X189572720Y-137013155D01*
X189564885Y-137022702D01*
X189531506Y-137059531D01*
X189343091Y-137267416D01*
X189334348Y-137276159D01*
X189089641Y-137497952D01*
X189080083Y-137505796D01*
X188814821Y-137702532D01*
X188804540Y-137709402D01*
X188521297Y-137879176D01*
X188521265Y-137879195D01*
X188510363Y-137885022D01*
X188211806Y-138026234D01*
X188200394Y-138030962D01*
X187889422Y-138142234D01*
X187877617Y-138145816D01*
X187557234Y-138226073D01*
X187545118Y-138228483D01*
X187349982Y-138257433D01*
X187218420Y-138276950D01*
X187206120Y-138278162D01*
X187116332Y-138282575D01*
X186913297Y-138292554D01*
X186887728Y-138291206D01*
X186885226Y-138290816D01*
X186885220Y-138290816D01*
X186876351Y-138289435D01*
X186848129Y-138293126D01*
X186844795Y-138293562D01*
X186828455Y-138294626D01*
X100919370Y-138294626D01*
X100899985Y-138293126D01*
X100885152Y-138290816D01*
X100885148Y-138290816D01*
X100876279Y-138289435D01*
X100856924Y-138291966D01*
X100834410Y-138292878D01*
X100533952Y-138278117D01*
X100521660Y-138276907D01*
X100384137Y-138256508D01*
X100194969Y-138228447D01*
X100182842Y-138226035D01*
X99862481Y-138145790D01*
X99850648Y-138142201D01*
X99695166Y-138086569D01*
X99539681Y-138030936D01*
X99528261Y-138026205D01*
X99229715Y-137885005D01*
X99218809Y-137879176D01*
X98935536Y-137709389D01*
X98925256Y-137702520D01*
X98659978Y-137505779D01*
X98650419Y-137497934D01*
X98405716Y-137276149D01*
X98396973Y-137267406D01*
X98175183Y-137022702D01*
X98167338Y-137013144D01*
X97970589Y-136747860D01*
X97963731Y-136737596D01*
X97793940Y-136454320D01*
X97788113Y-136443418D01*
X97691991Y-136240189D01*
X97646902Y-136144859D01*
X97642173Y-136133442D01*
X97530912Y-135822492D01*
X97527322Y-135810659D01*
X97447071Y-135490290D01*
X97444659Y-135478163D01*
X97410887Y-135250501D01*
X97396197Y-135151476D01*
X97394985Y-135139173D01*
X97390973Y-135057509D01*
X97380594Y-134846276D01*
X97381941Y-134820721D01*
X97383703Y-134809406D01*
X97382539Y-134800505D01*
X97382539Y-134800501D01*
X97379576Y-134777847D01*
X97378512Y-134761509D01*
X97378512Y-132803138D01*
X99356691Y-132803138D01*
X99375937Y-133170379D01*
X99433465Y-133533596D01*
X99528645Y-133888810D01*
X99660433Y-134232130D01*
X99661931Y-134235070D01*
X99801344Y-134508683D01*
X99827385Y-134559792D01*
X100027673Y-134868209D01*
X100259103Y-135154001D01*
X100519137Y-135414035D01*
X100804929Y-135645465D01*
X101113345Y-135845753D01*
X101441008Y-136012705D01*
X101650784Y-136093230D01*
X101770727Y-136139272D01*
X101784328Y-136144493D01*
X102139542Y-136239673D01*
X102332524Y-136270238D01*
X102499511Y-136296687D01*
X102499519Y-136296688D01*
X102502759Y-136297201D01*
X102870000Y-136316447D01*
X103237241Y-136297201D01*
X103240481Y-136296688D01*
X103240489Y-136296687D01*
X103407476Y-136270238D01*
X103600458Y-136239673D01*
X103955672Y-136144493D01*
X103969274Y-136139272D01*
X104089216Y-136093230D01*
X104298992Y-136012705D01*
X104626655Y-135845753D01*
X104935071Y-135645465D01*
X105220863Y-135414035D01*
X105480897Y-135154001D01*
X105712327Y-134868209D01*
X105912615Y-134559792D01*
X105938657Y-134508683D01*
X106078069Y-134235070D01*
X106079567Y-134232130D01*
X106211355Y-133888810D01*
X106306535Y-133533596D01*
X106364063Y-133170379D01*
X106383309Y-132803138D01*
X181356781Y-132803138D01*
X181376027Y-133170379D01*
X181433555Y-133533596D01*
X181528735Y-133888810D01*
X181660523Y-134232130D01*
X181662021Y-134235070D01*
X181801434Y-134508683D01*
X181827475Y-134559792D01*
X182027763Y-134868209D01*
X182259193Y-135154001D01*
X182519227Y-135414035D01*
X182805019Y-135645465D01*
X183113435Y-135845753D01*
X183441098Y-136012705D01*
X183650874Y-136093230D01*
X183770817Y-136139272D01*
X183784418Y-136144493D01*
X184139632Y-136239673D01*
X184332614Y-136270238D01*
X184499601Y-136296687D01*
X184499609Y-136296688D01*
X184502849Y-136297201D01*
X184870090Y-136316447D01*
X185237331Y-136297201D01*
X185240571Y-136296688D01*
X185240579Y-136296687D01*
X185407566Y-136270238D01*
X185600548Y-136239673D01*
X185955762Y-136144493D01*
X185969364Y-136139272D01*
X186089306Y-136093230D01*
X186299082Y-136012705D01*
X186626745Y-135845753D01*
X186935161Y-135645465D01*
X187220953Y-135414035D01*
X187480987Y-135154001D01*
X187712417Y-134868209D01*
X187912705Y-134559792D01*
X187938747Y-134508683D01*
X188078159Y-134235070D01*
X188079657Y-134232130D01*
X188211445Y-133888810D01*
X188306625Y-133533596D01*
X188364153Y-133170379D01*
X188383399Y-132803138D01*
X188364153Y-132435897D01*
X188306625Y-132072680D01*
X188211445Y-131717466D01*
X188079657Y-131374146D01*
X188061584Y-131338675D01*
X187914204Y-131049425D01*
X187914200Y-131049418D01*
X187912705Y-131046484D01*
X187910182Y-131042598D01*
X187714219Y-130740842D01*
X187712417Y-130738067D01*
X187480987Y-130452275D01*
X187220953Y-130192241D01*
X186935161Y-129960811D01*
X186626745Y-129760523D01*
X186299082Y-129593571D01*
X185955762Y-129461783D01*
X185600548Y-129366603D01*
X185407566Y-129336038D01*
X185240579Y-129309589D01*
X185240571Y-129309588D01*
X185237331Y-129309075D01*
X184870090Y-129289829D01*
X184502849Y-129309075D01*
X184499609Y-129309588D01*
X184499601Y-129309589D01*
X184332614Y-129336038D01*
X184139632Y-129366603D01*
X183784418Y-129461783D01*
X183441098Y-129593571D01*
X183438158Y-129595069D01*
X183116377Y-129759024D01*
X183116374Y-129759026D01*
X183113436Y-129760523D01*
X183110670Y-129762319D01*
X183110667Y-129762321D01*
X182908568Y-129893566D01*
X182805019Y-129960811D01*
X182519227Y-130192241D01*
X182259193Y-130452275D01*
X182027763Y-130738067D01*
X182025961Y-130740842D01*
X181829999Y-131042598D01*
X181827475Y-131046484D01*
X181825980Y-131049418D01*
X181825976Y-131049425D01*
X181678596Y-131338675D01*
X181660523Y-131374146D01*
X181528735Y-131717466D01*
X181433555Y-132072680D01*
X181376027Y-132435897D01*
X181356781Y-132803138D01*
X106383309Y-132803138D01*
X106364063Y-132435897D01*
X106306535Y-132072680D01*
X106211355Y-131717466D01*
X106079567Y-131374146D01*
X106061494Y-131338675D01*
X105914114Y-131049425D01*
X105914110Y-131049418D01*
X105912615Y-131046484D01*
X105910092Y-131042598D01*
X105714129Y-130740842D01*
X105712327Y-130738067D01*
X105480897Y-130452275D01*
X105220863Y-130192241D01*
X104935071Y-129960811D01*
X104626655Y-129760523D01*
X104298992Y-129593571D01*
X103955672Y-129461783D01*
X103600458Y-129366603D01*
X103407476Y-129336038D01*
X103240489Y-129309589D01*
X103240481Y-129309588D01*
X103237241Y-129309075D01*
X102870000Y-129289829D01*
X102502759Y-129309075D01*
X102499519Y-129309588D01*
X102499511Y-129309589D01*
X102332524Y-129336038D01*
X102139542Y-129366603D01*
X101784328Y-129461783D01*
X101441008Y-129593571D01*
X101438068Y-129595069D01*
X101116287Y-129759024D01*
X101116284Y-129759026D01*
X101113346Y-129760523D01*
X101110580Y-129762319D01*
X101110577Y-129762321D01*
X100908478Y-129893566D01*
X100804929Y-129960811D01*
X100519137Y-130192241D01*
X100259103Y-130452275D01*
X100027673Y-130738067D01*
X100025871Y-130740842D01*
X99829909Y-131042598D01*
X99827385Y-131046484D01*
X99825890Y-131049418D01*
X99825886Y-131049425D01*
X99678506Y-131338675D01*
X99660433Y-131374146D01*
X99528645Y-131717466D01*
X99433465Y-132072680D01*
X99375937Y-132435897D01*
X99356691Y-132803138D01*
X97378512Y-132803138D01*
X97378512Y-114206431D01*
X97380258Y-114185527D01*
X97382781Y-114170529D01*
X97383588Y-114165734D01*
X97383741Y-114153182D01*
X97381620Y-114138370D01*
X97380670Y-114129511D01*
X97367288Y-113942444D01*
X97366967Y-113937954D01*
X97330196Y-113768923D01*
X97322058Y-113731515D01*
X97322057Y-113731511D01*
X97321099Y-113727108D01*
X97319525Y-113722889D01*
X97319523Y-113722881D01*
X97247265Y-113529154D01*
X97247263Y-113529150D01*
X97245691Y-113524935D01*
X97142279Y-113335552D01*
X97012968Y-113162813D01*
X96860390Y-113010234D01*
X96687651Y-112880923D01*
X96498268Y-112777511D01*
X96494053Y-112775939D01*
X96494049Y-112775937D01*
X96411430Y-112745121D01*
X96296095Y-112702102D01*
X96085249Y-112656233D01*
X96015266Y-112651227D01*
X95910490Y-112643731D01*
X95898580Y-112642306D01*
X95887376Y-112640421D01*
X95887363Y-112640420D01*
X95882573Y-112639614D01*
X95876459Y-112639539D01*
X95874886Y-112639520D01*
X95874882Y-112639520D01*
X95870021Y-112639461D01*
X95865203Y-112640151D01*
X95865202Y-112640151D01*
X95846709Y-112642799D01*
X95827134Y-112644059D01*
X95698339Y-112642306D01*
X94415966Y-112624851D01*
X94348126Y-112603925D01*
X94302368Y-112549642D01*
X94291734Y-112502464D01*
X94289931Y-112439393D01*
X94289803Y-112434901D01*
X94289037Y-112430474D01*
X94265646Y-112295311D01*
X94265644Y-112295304D01*
X94264880Y-112290888D01*
X94230597Y-112185375D01*
X94225120Y-112159610D01*
X94219209Y-112103371D01*
X94219209Y-112077029D01*
X94225120Y-112020790D01*
X94230597Y-111995024D01*
X94248070Y-111941249D01*
X94258783Y-111917187D01*
X94287057Y-111868214D01*
X94302540Y-111846905D01*
X94340374Y-111804886D01*
X94359948Y-111787260D01*
X94405701Y-111754018D01*
X94428514Y-111740847D01*
X94480169Y-111717849D01*
X94505216Y-111709711D01*
X94560534Y-111697953D01*
X94586730Y-111695200D01*
X94641400Y-111695200D01*
X94644746Y-111694840D01*
X94644751Y-111694840D01*
X94747185Y-111683828D01*
X94747192Y-111683827D01*
X94750549Y-111683466D01*
X94753850Y-111682748D01*
X94799610Y-111672794D01*
X94799615Y-111672793D01*
X94802891Y-111672080D01*
X94907057Y-111637410D01*
X95030012Y-111558392D01*
X95083668Y-111511899D01*
X95091697Y-111502633D01*
X95173481Y-111408250D01*
X95173483Y-111408247D01*
X95179382Y-111401439D01*
X95240098Y-111268490D01*
X95260100Y-111200369D01*
X95264063Y-111172811D01*
X95273506Y-111107127D01*
X95302999Y-111042546D01*
X95362725Y-111004162D01*
X95398224Y-110999058D01*
X97725525Y-110999058D01*
X97793646Y-111019060D01*
X97814620Y-111035963D01*
X104664595Y-117885938D01*
X104698621Y-117948250D01*
X104701500Y-117975033D01*
X104701500Y-126707075D01*
X104699949Y-126726785D01*
X104697826Y-126740190D01*
X104698171Y-126746778D01*
X104698171Y-126746782D01*
X104701327Y-126806999D01*
X104701500Y-126813593D01*
X104701500Y-126833620D01*
X104701844Y-126836891D01*
X104701844Y-126836895D01*
X104703593Y-126853539D01*
X104704110Y-126860113D01*
X104707611Y-126926915D01*
X104709320Y-126933292D01*
X104709320Y-126933293D01*
X104711124Y-126940023D01*
X104714728Y-126959470D01*
X104716145Y-126972956D01*
X104718187Y-126979240D01*
X104736818Y-127036582D01*
X104738691Y-127042906D01*
X104756006Y-127107524D01*
X104762167Y-127119616D01*
X104769730Y-127137875D01*
X104773925Y-127150785D01*
X104804057Y-127202975D01*
X104807376Y-127208724D01*
X104810523Y-127214520D01*
X104840893Y-127274125D01*
X104845050Y-127279258D01*
X104849432Y-127284670D01*
X104860625Y-127300955D01*
X104864116Y-127307002D01*
X104864119Y-127307005D01*
X104867415Y-127312715D01*
X104871827Y-127317615D01*
X104871830Y-127317619D01*
X104912175Y-127362425D01*
X104916463Y-127367446D01*
X104929063Y-127383006D01*
X104943210Y-127397153D01*
X104947751Y-127401937D01*
X104992530Y-127451669D01*
X105003518Y-127459652D01*
X105018546Y-127472489D01*
X107674595Y-130128538D01*
X107708621Y-130190850D01*
X107711500Y-130217633D01*
X107711500Y-130588134D01*
X107718255Y-130650316D01*
X107769385Y-130786705D01*
X107856739Y-130903261D01*
X107973295Y-130990615D01*
X108109684Y-131041745D01*
X108171866Y-131048500D01*
X110268134Y-131048500D01*
X110330316Y-131041745D01*
X110445771Y-130998463D01*
X110516577Y-130993280D01*
X110534228Y-130998462D01*
X110649684Y-131041745D01*
X110711866Y-131048500D01*
X112808134Y-131048500D01*
X112870316Y-131041745D01*
X112985771Y-130998463D01*
X113056577Y-130993280D01*
X113074228Y-130998462D01*
X113189684Y-131041745D01*
X113251866Y-131048500D01*
X115348134Y-131048500D01*
X115410316Y-131041745D01*
X115525771Y-130998463D01*
X115596577Y-130993280D01*
X115614228Y-130998462D01*
X115729684Y-131041745D01*
X115791866Y-131048500D01*
X117888134Y-131048500D01*
X117950316Y-131041745D01*
X118065771Y-130998463D01*
X118136577Y-130993280D01*
X118154228Y-130998462D01*
X118269684Y-131041745D01*
X118331866Y-131048500D01*
X120428134Y-131048500D01*
X120490316Y-131041745D01*
X120605771Y-130998463D01*
X120676577Y-130993280D01*
X120694228Y-130998462D01*
X120809684Y-131041745D01*
X120871866Y-131048500D01*
X122968134Y-131048500D01*
X123030316Y-131041745D01*
X123061248Y-131030149D01*
X123132054Y-131024964D01*
X123165988Y-131037610D01*
X123168960Y-131039237D01*
X123176142Y-131044620D01*
X123184543Y-131047769D01*
X123184546Y-131047771D01*
X123265261Y-131078029D01*
X123312531Y-131095750D01*
X123374713Y-131102505D01*
X125470981Y-131102505D01*
X125533163Y-131095750D01*
X125630041Y-131059432D01*
X125700849Y-131054249D01*
X125718501Y-131059432D01*
X125815379Y-131095750D01*
X125877561Y-131102505D01*
X127973829Y-131102505D01*
X128036011Y-131095750D01*
X128172400Y-131044620D01*
X128197820Y-131025569D01*
X128264327Y-131000723D01*
X128333709Y-131015777D01*
X128348945Y-131025569D01*
X128374365Y-131044620D01*
X128510754Y-131095750D01*
X128572936Y-131102505D01*
X130669204Y-131102505D01*
X130731386Y-131095750D01*
X130867775Y-131044620D01*
X130868149Y-131045617D01*
X130929438Y-131032214D01*
X130954478Y-131037668D01*
X130954602Y-131037145D01*
X130962290Y-131038973D01*
X130969684Y-131041745D01*
X130977532Y-131042598D01*
X130977534Y-131042598D01*
X131028469Y-131048131D01*
X131031866Y-131048500D01*
X133128134Y-131048500D01*
X133190316Y-131041745D01*
X133305771Y-130998463D01*
X133376577Y-130993280D01*
X133394228Y-130998462D01*
X133509684Y-131041745D01*
X133571866Y-131048500D01*
X135668134Y-131048500D01*
X135730316Y-131041745D01*
X135845771Y-130998463D01*
X135916577Y-130993280D01*
X135934228Y-130998462D01*
X136049684Y-131041745D01*
X136111866Y-131048500D01*
X138208134Y-131048500D01*
X138270316Y-131041745D01*
X138385771Y-130998463D01*
X138456577Y-130993280D01*
X138474228Y-130998462D01*
X138589684Y-131041745D01*
X138651866Y-131048500D01*
X140748134Y-131048500D01*
X140810316Y-131041745D01*
X140925771Y-130998463D01*
X140996577Y-130993280D01*
X141014228Y-130998462D01*
X141129684Y-131041745D01*
X141191866Y-131048500D01*
X143288134Y-131048500D01*
X143350316Y-131041745D01*
X143465771Y-130998463D01*
X143536577Y-130993280D01*
X143554228Y-130998462D01*
X143669684Y-131041745D01*
X143731866Y-131048500D01*
X145828134Y-131048500D01*
X145890316Y-131041745D01*
X146005771Y-130998463D01*
X146076577Y-130993280D01*
X146094228Y-130998462D01*
X146209684Y-131041745D01*
X146271866Y-131048500D01*
X148368134Y-131048500D01*
X148430316Y-131041745D01*
X148461248Y-131030149D01*
X148532054Y-131024964D01*
X148565988Y-131037610D01*
X148568960Y-131039237D01*
X148576142Y-131044620D01*
X148584543Y-131047769D01*
X148584546Y-131047771D01*
X148665261Y-131078029D01*
X148712531Y-131095750D01*
X148774713Y-131102505D01*
X150870981Y-131102505D01*
X150933163Y-131095750D01*
X151030041Y-131059432D01*
X151100849Y-131054249D01*
X151118501Y-131059432D01*
X151215379Y-131095750D01*
X151277561Y-131102505D01*
X153373829Y-131102505D01*
X153436011Y-131095750D01*
X153572400Y-131044620D01*
X153597820Y-131025569D01*
X153664327Y-131000723D01*
X153733709Y-131015777D01*
X153748945Y-131025569D01*
X153774365Y-131044620D01*
X153910754Y-131095750D01*
X153972936Y-131102505D01*
X156069204Y-131102505D01*
X156131386Y-131095750D01*
X156267775Y-131044620D01*
X156268149Y-131045617D01*
X156329438Y-131032214D01*
X156354478Y-131037668D01*
X156354602Y-131037145D01*
X156362290Y-131038973D01*
X156369684Y-131041745D01*
X156377532Y-131042598D01*
X156377534Y-131042598D01*
X156428469Y-131048131D01*
X156431866Y-131048500D01*
X158528134Y-131048500D01*
X158590316Y-131041745D01*
X158705771Y-130998463D01*
X158776577Y-130993280D01*
X158794228Y-130998462D01*
X158909684Y-131041745D01*
X158971866Y-131048500D01*
X161068134Y-131048500D01*
X161130316Y-131041745D01*
X161245771Y-130998463D01*
X161316577Y-130993280D01*
X161334228Y-130998462D01*
X161449684Y-131041745D01*
X161511866Y-131048500D01*
X163608134Y-131048500D01*
X163670316Y-131041745D01*
X163785771Y-130998463D01*
X163856577Y-130993280D01*
X163874228Y-130998462D01*
X163989684Y-131041745D01*
X164051866Y-131048500D01*
X166148134Y-131048500D01*
X166210316Y-131041745D01*
X166325771Y-130998463D01*
X166396577Y-130993280D01*
X166414228Y-130998462D01*
X166529684Y-131041745D01*
X166591866Y-131048500D01*
X168688134Y-131048500D01*
X168750316Y-131041745D01*
X168865771Y-130998463D01*
X168936577Y-130993280D01*
X168954228Y-130998462D01*
X169069684Y-131041745D01*
X169131866Y-131048500D01*
X171228134Y-131048500D01*
X171290316Y-131041745D01*
X171405771Y-130998463D01*
X171476577Y-130993280D01*
X171494228Y-130998462D01*
X171609684Y-131041745D01*
X171671866Y-131048500D01*
X173768134Y-131048500D01*
X173830316Y-131041745D01*
X173861248Y-131030149D01*
X173932054Y-131024964D01*
X173965988Y-131037610D01*
X173968960Y-131039237D01*
X173976142Y-131044620D01*
X173984543Y-131047769D01*
X173984546Y-131047771D01*
X174065261Y-131078029D01*
X174112531Y-131095750D01*
X174174713Y-131102505D01*
X176270981Y-131102505D01*
X176333163Y-131095750D01*
X176469552Y-131044620D01*
X176476731Y-131039240D01*
X176476736Y-131039237D01*
X176490307Y-131029066D01*
X176556813Y-131004219D01*
X176610100Y-131011911D01*
X176682282Y-131038971D01*
X176682288Y-131038973D01*
X176689684Y-131041745D01*
X176751866Y-131048500D01*
X178848134Y-131048500D01*
X178910316Y-131041745D01*
X179046705Y-130990615D01*
X179163261Y-130903261D01*
X179250615Y-130786705D01*
X179301745Y-130650316D01*
X179308500Y-130588134D01*
X179308500Y-128491866D01*
X179301745Y-128429684D01*
X179258463Y-128314229D01*
X179253280Y-128243423D01*
X179258463Y-128225770D01*
X179298971Y-128117715D01*
X179301745Y-128110316D01*
X179308500Y-128048134D01*
X179308500Y-125951866D01*
X179301745Y-125889684D01*
X179258463Y-125774229D01*
X179253280Y-125703423D01*
X179258463Y-125685770D01*
X179298971Y-125577715D01*
X179301745Y-125570316D01*
X179308500Y-125508134D01*
X179308500Y-123411866D01*
X179301745Y-123349684D01*
X179258463Y-123234229D01*
X179253280Y-123163423D01*
X179258463Y-123145770D01*
X179298971Y-123037715D01*
X179301745Y-123030316D01*
X179308500Y-122968134D01*
X179308500Y-120871866D01*
X179301745Y-120809684D01*
X179258463Y-120694229D01*
X179253280Y-120623423D01*
X179258463Y-120605770D01*
X179298971Y-120497715D01*
X179301745Y-120490316D01*
X179308500Y-120428134D01*
X179308500Y-118331866D01*
X179301745Y-118269684D01*
X179258463Y-118154229D01*
X179253280Y-118083423D01*
X179258463Y-118065770D01*
X179298971Y-117957715D01*
X179301745Y-117950316D01*
X179308500Y-117888134D01*
X179308500Y-115791866D01*
X179301745Y-115729684D01*
X179258463Y-115614229D01*
X179253280Y-115543423D01*
X179258463Y-115525770D01*
X179298971Y-115417715D01*
X179301745Y-115410316D01*
X179308500Y-115348134D01*
X179308500Y-113251866D01*
X179301745Y-113189684D01*
X179258463Y-113074229D01*
X179253280Y-113003423D01*
X179258463Y-112985770D01*
X179296756Y-112883623D01*
X179301745Y-112870316D01*
X179308500Y-112808134D01*
X179308500Y-110711866D01*
X179301745Y-110649684D01*
X179258463Y-110534229D01*
X179253280Y-110463423D01*
X179258463Y-110445770D01*
X179298971Y-110337715D01*
X179301745Y-110330316D01*
X179308500Y-110268134D01*
X179308500Y-108171866D01*
X179301745Y-108109684D01*
X179258463Y-107994229D01*
X179253280Y-107923423D01*
X179258463Y-107905770D01*
X179272213Y-107869092D01*
X179301745Y-107790316D01*
X179308500Y-107728134D01*
X179308500Y-105631866D01*
X179301745Y-105569684D01*
X179258463Y-105454229D01*
X179253280Y-105383423D01*
X179258463Y-105365770D01*
X179298971Y-105257715D01*
X179301745Y-105250316D01*
X179308500Y-105188134D01*
X179308500Y-103091866D01*
X179301745Y-103029684D01*
X179258463Y-102914229D01*
X179253280Y-102843423D01*
X179258463Y-102825770D01*
X179298971Y-102717715D01*
X179301745Y-102710316D01*
X179308500Y-102648134D01*
X179308500Y-100551866D01*
X179301745Y-100489684D01*
X179258463Y-100374229D01*
X179253280Y-100303423D01*
X179258463Y-100285770D01*
X179298971Y-100177715D01*
X179301745Y-100170316D01*
X179308500Y-100108134D01*
X179308500Y-98011866D01*
X179301745Y-97949684D01*
X179258463Y-97834229D01*
X179253280Y-97763423D01*
X179258463Y-97745770D01*
X179298971Y-97637715D01*
X179301745Y-97630316D01*
X179308500Y-97568134D01*
X179308500Y-95471866D01*
X179301745Y-95409684D01*
X179258463Y-95294229D01*
X179253280Y-95223423D01*
X179258463Y-95205770D01*
X179298971Y-95097715D01*
X179301745Y-95090316D01*
X179308500Y-95028134D01*
X179308500Y-92931866D01*
X179301745Y-92869684D01*
X179258463Y-92754229D01*
X179253280Y-92683423D01*
X179258463Y-92665770D01*
X179268441Y-92639153D01*
X179301745Y-92550316D01*
X179308500Y-92488134D01*
X179308500Y-90391866D01*
X179301745Y-90329684D01*
X179258463Y-90214229D01*
X179253280Y-90143423D01*
X179258463Y-90125770D01*
X179298971Y-90017715D01*
X179301745Y-90010316D01*
X179308500Y-89948134D01*
X179308500Y-87851866D01*
X179301745Y-87789684D01*
X179258463Y-87674229D01*
X179253280Y-87603423D01*
X179258463Y-87585770D01*
X179260272Y-87580944D01*
X179301745Y-87470316D01*
X179308500Y-87408134D01*
X179308500Y-85311866D01*
X179301745Y-85249684D01*
X179258463Y-85134229D01*
X179253280Y-85063423D01*
X179258463Y-85045770D01*
X179298971Y-84937715D01*
X179301745Y-84930316D01*
X179308500Y-84868134D01*
X179308500Y-82771866D01*
X179301745Y-82709684D01*
X179258463Y-82594229D01*
X179253280Y-82523423D01*
X179258463Y-82505770D01*
X179298971Y-82397715D01*
X179301745Y-82390316D01*
X179308500Y-82328134D01*
X179308500Y-80231866D01*
X179301745Y-80169684D01*
X179258463Y-80054229D01*
X179253280Y-79983423D01*
X179258463Y-79965770D01*
X179298971Y-79857715D01*
X179301745Y-79850316D01*
X179308500Y-79788134D01*
X179308500Y-77691866D01*
X179301745Y-77629684D01*
X179258463Y-77514229D01*
X179253280Y-77443423D01*
X179258463Y-77425770D01*
X179298971Y-77317715D01*
X179301745Y-77310316D01*
X179308500Y-77248134D01*
X179308500Y-75151866D01*
X179301745Y-75089684D01*
X179258463Y-74974229D01*
X179253280Y-74903423D01*
X179258463Y-74885770D01*
X179298971Y-74777715D01*
X179301745Y-74770316D01*
X179308500Y-74708134D01*
X179308500Y-72611866D01*
X179301745Y-72549684D01*
X179258463Y-72434229D01*
X179253280Y-72363423D01*
X179258463Y-72345770D01*
X179298971Y-72237715D01*
X179301745Y-72230316D01*
X179308500Y-72168134D01*
X179308500Y-70071866D01*
X179301745Y-70009684D01*
X179250615Y-69873295D01*
X179163261Y-69756739D01*
X179046705Y-69669385D01*
X178910316Y-69618255D01*
X178848134Y-69611500D01*
X176751866Y-69611500D01*
X176689684Y-69618255D01*
X176553295Y-69669385D01*
X176546116Y-69674765D01*
X176546111Y-69674768D01*
X176532540Y-69684939D01*
X176466034Y-69709786D01*
X176412747Y-69702094D01*
X176340565Y-69675034D01*
X176340559Y-69675032D01*
X176333163Y-69672260D01*
X176270981Y-69665505D01*
X174174713Y-69665505D01*
X174112531Y-69672260D01*
X174081599Y-69683856D01*
X174010793Y-69689041D01*
X173976859Y-69676395D01*
X173973887Y-69674768D01*
X173966705Y-69669385D01*
X173958304Y-69666236D01*
X173958301Y-69666234D01*
X173849770Y-69625548D01*
X173830316Y-69618255D01*
X173768134Y-69611500D01*
X171671866Y-69611500D01*
X171609684Y-69618255D01*
X171494229Y-69661537D01*
X171423423Y-69666720D01*
X171405772Y-69661538D01*
X171290316Y-69618255D01*
X171228134Y-69611500D01*
X169131866Y-69611500D01*
X169069684Y-69618255D01*
X168954229Y-69661537D01*
X168883423Y-69666720D01*
X168865772Y-69661538D01*
X168750316Y-69618255D01*
X168688134Y-69611500D01*
X166591866Y-69611500D01*
X166529684Y-69618255D01*
X166414229Y-69661537D01*
X166343423Y-69666720D01*
X166325772Y-69661538D01*
X166210316Y-69618255D01*
X166148134Y-69611500D01*
X164051866Y-69611500D01*
X163989684Y-69618255D01*
X163874229Y-69661537D01*
X163803423Y-69666720D01*
X163785772Y-69661538D01*
X163670316Y-69618255D01*
X163608134Y-69611500D01*
X161511866Y-69611500D01*
X161449684Y-69618255D01*
X161334229Y-69661537D01*
X161263423Y-69666720D01*
X161245772Y-69661538D01*
X161130316Y-69618255D01*
X161068134Y-69611500D01*
X158971866Y-69611500D01*
X158909684Y-69618255D01*
X158794229Y-69661537D01*
X158723423Y-69666720D01*
X158705772Y-69661538D01*
X158590316Y-69618255D01*
X158528134Y-69611500D01*
X156431866Y-69611500D01*
X156369684Y-69618255D01*
X156233295Y-69669385D01*
X156232921Y-69668388D01*
X156171632Y-69681791D01*
X156146592Y-69676337D01*
X156146468Y-69676860D01*
X156138780Y-69675032D01*
X156131386Y-69672260D01*
X156123538Y-69671407D01*
X156123536Y-69671407D01*
X156072601Y-69665874D01*
X156069204Y-69665505D01*
X153972936Y-69665505D01*
X153910754Y-69672260D01*
X153774365Y-69723390D01*
X153750388Y-69741360D01*
X153748948Y-69742439D01*
X153682442Y-69767287D01*
X153613059Y-69752234D01*
X153597820Y-69742441D01*
X153591669Y-69737831D01*
X153572400Y-69723390D01*
X153436011Y-69672260D01*
X153373829Y-69665505D01*
X151277561Y-69665505D01*
X151215379Y-69672260D01*
X151170616Y-69689041D01*
X151118501Y-69708578D01*
X151047693Y-69713761D01*
X151030041Y-69708578D01*
X150977926Y-69689041D01*
X150933163Y-69672260D01*
X150870981Y-69665505D01*
X148774713Y-69665505D01*
X148712531Y-69672260D01*
X148681599Y-69683856D01*
X148610793Y-69689041D01*
X148576859Y-69676395D01*
X148573887Y-69674768D01*
X148566705Y-69669385D01*
X148558304Y-69666236D01*
X148558301Y-69666234D01*
X148449770Y-69625548D01*
X148430316Y-69618255D01*
X148368134Y-69611500D01*
X146271866Y-69611500D01*
X146209684Y-69618255D01*
X146094229Y-69661537D01*
X146023423Y-69666720D01*
X146005772Y-69661538D01*
X145890316Y-69618255D01*
X145828134Y-69611500D01*
X143731866Y-69611500D01*
X143669684Y-69618255D01*
X143554229Y-69661537D01*
X143483423Y-69666720D01*
X143465772Y-69661538D01*
X143350316Y-69618255D01*
X143288134Y-69611500D01*
X141191866Y-69611500D01*
X141129684Y-69618255D01*
X141014229Y-69661537D01*
X140943423Y-69666720D01*
X140925772Y-69661538D01*
X140810316Y-69618255D01*
X140748134Y-69611500D01*
X138651866Y-69611500D01*
X138589684Y-69618255D01*
X138474229Y-69661537D01*
X138403423Y-69666720D01*
X138385772Y-69661538D01*
X138270316Y-69618255D01*
X138208134Y-69611500D01*
X136111866Y-69611500D01*
X136049684Y-69618255D01*
X135934229Y-69661537D01*
X135863423Y-69666720D01*
X135845772Y-69661538D01*
X135730316Y-69618255D01*
X135668134Y-69611500D01*
X133571866Y-69611500D01*
X133509684Y-69618255D01*
X133394229Y-69661537D01*
X133323423Y-69666720D01*
X133305772Y-69661538D01*
X133190316Y-69618255D01*
X133128134Y-69611500D01*
X131031866Y-69611500D01*
X130969684Y-69618255D01*
X130833295Y-69669385D01*
X130832921Y-69668388D01*
X130771632Y-69681791D01*
X130746592Y-69676337D01*
X130746468Y-69676860D01*
X130738780Y-69675032D01*
X130731386Y-69672260D01*
X130723538Y-69671407D01*
X130723536Y-69671407D01*
X130672601Y-69665874D01*
X130669204Y-69665505D01*
X128572936Y-69665505D01*
X128510754Y-69672260D01*
X128374365Y-69723390D01*
X128350388Y-69741360D01*
X128348948Y-69742439D01*
X128282442Y-69767287D01*
X128213059Y-69752234D01*
X128197820Y-69742441D01*
X128191669Y-69737831D01*
X128172400Y-69723390D01*
X128036011Y-69672260D01*
X127973829Y-69665505D01*
X125877561Y-69665505D01*
X125815379Y-69672260D01*
X125770616Y-69689041D01*
X125718501Y-69708578D01*
X125647693Y-69713761D01*
X125630041Y-69708578D01*
X125577926Y-69689041D01*
X125533163Y-69672260D01*
X125470981Y-69665505D01*
X123374713Y-69665505D01*
X123312531Y-69672260D01*
X123281599Y-69683856D01*
X123210793Y-69689041D01*
X123176859Y-69676395D01*
X123173887Y-69674768D01*
X123166705Y-69669385D01*
X123158304Y-69666236D01*
X123158301Y-69666234D01*
X123049770Y-69625548D01*
X123030316Y-69618255D01*
X122968134Y-69611500D01*
X120871866Y-69611500D01*
X120809684Y-69618255D01*
X120694229Y-69661537D01*
X120623423Y-69666720D01*
X120605772Y-69661538D01*
X120490316Y-69618255D01*
X120428134Y-69611500D01*
X118331866Y-69611500D01*
X118269684Y-69618255D01*
X118154229Y-69661537D01*
X118083423Y-69666720D01*
X118065772Y-69661538D01*
X117950316Y-69618255D01*
X117888134Y-69611500D01*
X115791866Y-69611500D01*
X115729684Y-69618255D01*
X115614229Y-69661537D01*
X115543423Y-69666720D01*
X115525772Y-69661538D01*
X115410316Y-69618255D01*
X115348134Y-69611500D01*
X113251866Y-69611500D01*
X113189684Y-69618255D01*
X113074229Y-69661537D01*
X113003423Y-69666720D01*
X112985772Y-69661538D01*
X112870316Y-69618255D01*
X112808134Y-69611500D01*
X110711866Y-69611500D01*
X110649684Y-69618255D01*
X110533517Y-69661804D01*
X110462711Y-69666987D01*
X110445058Y-69661804D01*
X110337606Y-69621522D01*
X110322351Y-69617895D01*
X110271486Y-69612369D01*
X110264672Y-69612000D01*
X109492115Y-69612000D01*
X109476876Y-69616475D01*
X109475671Y-69617865D01*
X109474000Y-69625548D01*
X109474000Y-73788000D01*
X109453998Y-73856121D01*
X109400342Y-73902614D01*
X109348000Y-73914000D01*
X107730116Y-73914000D01*
X107714877Y-73918475D01*
X107713672Y-73919865D01*
X107712001Y-73927548D01*
X107712001Y-74704669D01*
X107712371Y-74711490D01*
X107717895Y-74762352D01*
X107721521Y-74777604D01*
X107761804Y-74885058D01*
X107766987Y-74955865D01*
X107761805Y-74973515D01*
X107718255Y-75089684D01*
X107711500Y-75151866D01*
X107711500Y-76760406D01*
X107691498Y-76828527D01*
X107674595Y-76849501D01*
X97534571Y-86989524D01*
X97472259Y-87023550D01*
X97401444Y-87018485D01*
X97344608Y-86975938D01*
X97319797Y-86909418D01*
X97322354Y-86873653D01*
X97366032Y-86672811D01*
X97366033Y-86672806D01*
X97366987Y-86668418D01*
X97379473Y-86493643D01*
X97380898Y-86481727D01*
X97382782Y-86470526D01*
X97383589Y-86465728D01*
X97383741Y-86453176D01*
X97379786Y-86425575D01*
X97378512Y-86407703D01*
X97378512Y-73387885D01*
X107712000Y-73387885D01*
X107716475Y-73403124D01*
X107717865Y-73404329D01*
X107725548Y-73406000D01*
X108947885Y-73406000D01*
X108963124Y-73401525D01*
X108964329Y-73400135D01*
X108966000Y-73392452D01*
X108966000Y-71392115D01*
X108961525Y-71376876D01*
X108960135Y-71375671D01*
X108952452Y-71374000D01*
X107730116Y-71374000D01*
X107714877Y-71378475D01*
X107713672Y-71379865D01*
X107712001Y-71387548D01*
X107712001Y-72164669D01*
X107712371Y-72171490D01*
X107717895Y-72222352D01*
X107721521Y-72237603D01*
X107762071Y-72345770D01*
X107767254Y-72416577D01*
X107762071Y-72434230D01*
X107721522Y-72542394D01*
X107717895Y-72557649D01*
X107712369Y-72608514D01*
X107712000Y-72615328D01*
X107712000Y-73387885D01*
X97378512Y-73387885D01*
X97378512Y-67803268D01*
X99356691Y-67803268D01*
X99375937Y-68170509D01*
X99433465Y-68533726D01*
X99528645Y-68888940D01*
X99660433Y-69232260D01*
X99661931Y-69235200D01*
X99801344Y-69508813D01*
X99827385Y-69559922D01*
X99829181Y-69562688D01*
X99829183Y-69562691D01*
X99908572Y-69684939D01*
X100027673Y-69868339D01*
X100259103Y-70154131D01*
X100519137Y-70414165D01*
X100804929Y-70645595D01*
X101113345Y-70845883D01*
X101441008Y-71012835D01*
X101784328Y-71144623D01*
X102139542Y-71239803D01*
X102332524Y-71270368D01*
X102499511Y-71296817D01*
X102499519Y-71296818D01*
X102502759Y-71297331D01*
X102870000Y-71316577D01*
X103237241Y-71297331D01*
X103240481Y-71296818D01*
X103240489Y-71296817D01*
X103407476Y-71270368D01*
X103600458Y-71239803D01*
X103955672Y-71144623D01*
X104298992Y-71012835D01*
X104622726Y-70847885D01*
X107712000Y-70847885D01*
X107716475Y-70863124D01*
X107717865Y-70864329D01*
X107725548Y-70866000D01*
X108947885Y-70866000D01*
X108963124Y-70861525D01*
X108964329Y-70860135D01*
X108966000Y-70852452D01*
X108966000Y-69630116D01*
X108961525Y-69614877D01*
X108960135Y-69613672D01*
X108952452Y-69612001D01*
X108175331Y-69612001D01*
X108168510Y-69612371D01*
X108117648Y-69617895D01*
X108102396Y-69621521D01*
X107981946Y-69666676D01*
X107966351Y-69675214D01*
X107864276Y-69751715D01*
X107851715Y-69764276D01*
X107775214Y-69866351D01*
X107766676Y-69881946D01*
X107721522Y-70002394D01*
X107717895Y-70017649D01*
X107712369Y-70068514D01*
X107712000Y-70075328D01*
X107712000Y-70847885D01*
X104622726Y-70847885D01*
X104626655Y-70845883D01*
X104935071Y-70645595D01*
X105220863Y-70414165D01*
X105480897Y-70154131D01*
X105712327Y-69868339D01*
X105831428Y-69684939D01*
X105910817Y-69562691D01*
X105910819Y-69562688D01*
X105912615Y-69559922D01*
X105938657Y-69508813D01*
X106078069Y-69235200D01*
X106079567Y-69232260D01*
X106211355Y-68888940D01*
X106306535Y-68533726D01*
X106364063Y-68170509D01*
X106383309Y-67803268D01*
X181356781Y-67803268D01*
X181376027Y-68170509D01*
X181433555Y-68533726D01*
X181528735Y-68888940D01*
X181660523Y-69232260D01*
X181662021Y-69235200D01*
X181801434Y-69508813D01*
X181827475Y-69559922D01*
X181829271Y-69562688D01*
X181829273Y-69562691D01*
X181908662Y-69684939D01*
X182027763Y-69868339D01*
X182259193Y-70154131D01*
X182519227Y-70414165D01*
X182805019Y-70645595D01*
X183113435Y-70845883D01*
X183441098Y-71012835D01*
X183784418Y-71144623D01*
X184139632Y-71239803D01*
X184332614Y-71270368D01*
X184499601Y-71296817D01*
X184499609Y-71296818D01*
X184502849Y-71297331D01*
X184870090Y-71316577D01*
X185237331Y-71297331D01*
X185240571Y-71296818D01*
X185240579Y-71296817D01*
X185407566Y-71270368D01*
X185600548Y-71239803D01*
X185955762Y-71144623D01*
X186299082Y-71012835D01*
X186626745Y-70845883D01*
X186935161Y-70645595D01*
X187220953Y-70414165D01*
X187480987Y-70154131D01*
X187712417Y-69868339D01*
X187831518Y-69684939D01*
X187910907Y-69562691D01*
X187910909Y-69562688D01*
X187912705Y-69559922D01*
X187938747Y-69508813D01*
X188078159Y-69235200D01*
X188079657Y-69232260D01*
X188211445Y-68888940D01*
X188306625Y-68533726D01*
X188364153Y-68170509D01*
X188383399Y-67803268D01*
X188364153Y-67436027D01*
X188306625Y-67072810D01*
X188211445Y-66717596D01*
X188079657Y-66374276D01*
X188061584Y-66338805D01*
X187914204Y-66049555D01*
X187914200Y-66049548D01*
X187912705Y-66046614D01*
X187712417Y-65738197D01*
X187480987Y-65452405D01*
X187220953Y-65192371D01*
X186935161Y-64960941D01*
X186626745Y-64760653D01*
X186299082Y-64593701D01*
X185984582Y-64472976D01*
X185958852Y-64463099D01*
X185958850Y-64463098D01*
X185955762Y-64461913D01*
X185600548Y-64366733D01*
X185407566Y-64336168D01*
X185240579Y-64309719D01*
X185240571Y-64309718D01*
X185237331Y-64309205D01*
X184870090Y-64289959D01*
X184502849Y-64309205D01*
X184499609Y-64309718D01*
X184499601Y-64309719D01*
X184332614Y-64336168D01*
X184139632Y-64366733D01*
X183784418Y-64461913D01*
X183781330Y-64463098D01*
X183781328Y-64463099D01*
X183755598Y-64472976D01*
X183441098Y-64593701D01*
X183438158Y-64595199D01*
X183116377Y-64759154D01*
X183116374Y-64759156D01*
X183113436Y-64760653D01*
X183110670Y-64762449D01*
X183110667Y-64762451D01*
X183059377Y-64795759D01*
X182805019Y-64960941D01*
X182519227Y-65192371D01*
X182259193Y-65452405D01*
X182027763Y-65738197D01*
X181827475Y-66046614D01*
X181825980Y-66049548D01*
X181825976Y-66049555D01*
X181678596Y-66338805D01*
X181660523Y-66374276D01*
X181528735Y-66717596D01*
X181433555Y-67072810D01*
X181376027Y-67436027D01*
X181356781Y-67803268D01*
X106383309Y-67803268D01*
X106364063Y-67436027D01*
X106306535Y-67072810D01*
X106211355Y-66717596D01*
X106079567Y-66374276D01*
X106061494Y-66338805D01*
X105914114Y-66049555D01*
X105914110Y-66049548D01*
X105912615Y-66046614D01*
X105712327Y-65738197D01*
X105480897Y-65452405D01*
X105220863Y-65192371D01*
X104935071Y-64960941D01*
X104626655Y-64760653D01*
X104298992Y-64593701D01*
X103984492Y-64472976D01*
X103958762Y-64463099D01*
X103958760Y-64463098D01*
X103955672Y-64461913D01*
X103600458Y-64366733D01*
X103407476Y-64336168D01*
X103240489Y-64309719D01*
X103240481Y-64309718D01*
X103237241Y-64309205D01*
X102870000Y-64289959D01*
X102502759Y-64309205D01*
X102499519Y-64309718D01*
X102499511Y-64309719D01*
X102332524Y-64336168D01*
X102139542Y-64366733D01*
X101784328Y-64461913D01*
X101781240Y-64463098D01*
X101781238Y-64463099D01*
X101755508Y-64472976D01*
X101441008Y-64593701D01*
X101438068Y-64595199D01*
X101116287Y-64759154D01*
X101116284Y-64759156D01*
X101113346Y-64760653D01*
X101110580Y-64762449D01*
X101110577Y-64762451D01*
X101059287Y-64795759D01*
X100804929Y-64960941D01*
X100519137Y-65192371D01*
X100259103Y-65452405D01*
X100027673Y-65738197D01*
X99827385Y-66046614D01*
X99825890Y-66049548D01*
X99825886Y-66049555D01*
X99678506Y-66338805D01*
X99660433Y-66374276D01*
X99528645Y-66717596D01*
X99433465Y-67072810D01*
X99375937Y-67436027D01*
X99356691Y-67803268D01*
X97378512Y-67803268D01*
X97378512Y-65852640D01*
X97380013Y-65833252D01*
X97382321Y-65818432D01*
X97382321Y-65818431D01*
X97383703Y-65809557D01*
X97381582Y-65793329D01*
X97381173Y-65790205D01*
X97380261Y-65767688D01*
X97395026Y-65467236D01*
X97396238Y-65454934D01*
X97410929Y-65355905D01*
X97444702Y-65128249D01*
X97447113Y-65116126D01*
X97527365Y-64795759D01*
X97530955Y-64783926D01*
X97642219Y-64472976D01*
X97646951Y-64461553D01*
X97728110Y-64289959D01*
X97788157Y-64163004D01*
X97793982Y-64152105D01*
X97963770Y-63868833D01*
X97970640Y-63858552D01*
X98167376Y-63593286D01*
X98175215Y-63583733D01*
X98397014Y-63339016D01*
X98405753Y-63330278D01*
X98650464Y-63108485D01*
X98660011Y-63100649D01*
X98925297Y-62903899D01*
X98935549Y-62897049D01*
X99218841Y-62727248D01*
X99229735Y-62721426D01*
X99528292Y-62580216D01*
X99539706Y-62575488D01*
X99654345Y-62534469D01*
X99850656Y-62464226D01*
X99862488Y-62460636D01*
X100076919Y-62406921D01*
X100182863Y-62380382D01*
X100194981Y-62377972D01*
X100521667Y-62329508D01*
X100533969Y-62328296D01*
X100612637Y-62324430D01*
X100827054Y-62313893D01*
X100852622Y-62315241D01*
X100854860Y-62315589D01*
X100863736Y-62316971D01*
X100895293Y-62312844D01*
X100911632Y-62311780D01*
X186820734Y-62311780D01*
X186840116Y-62313280D01*
G37*
%TD.AperFunction*%
%TA.AperFunction,Conductor*%
G36*
X95228412Y-103854770D02*
G01*
X95234995Y-103860899D01*
X107674595Y-116300499D01*
X107708621Y-116362811D01*
X107711500Y-116389594D01*
X107711500Y-116671405D01*
X107691498Y-116739526D01*
X107637842Y-116786019D01*
X107567568Y-116796123D01*
X107502988Y-116766629D01*
X107496405Y-116760500D01*
X95056805Y-104320900D01*
X95022779Y-104258588D01*
X95019900Y-104231805D01*
X95019900Y-103949994D01*
X95039902Y-103881873D01*
X95093558Y-103835380D01*
X95163832Y-103825276D01*
X95228412Y-103854770D01*
G37*
%TD.AperFunction*%
%TA.AperFunction,Conductor*%
G36*
X94186328Y-105246593D02*
G01*
X94208102Y-105264006D01*
X97949059Y-109004963D01*
X97983085Y-109067275D01*
X97978020Y-109138090D01*
X97935473Y-109194926D01*
X97868953Y-109219737D01*
X97859964Y-109220058D01*
X95406900Y-109220058D01*
X95338779Y-109200056D01*
X95292286Y-109146400D01*
X95280900Y-109094058D01*
X95280900Y-108469058D01*
X95269166Y-108359909D01*
X95257780Y-108307567D01*
X95223110Y-108203401D01*
X95144092Y-108080446D01*
X95097599Y-108026790D01*
X95060023Y-107994230D01*
X94993950Y-107936977D01*
X94993947Y-107936975D01*
X94987139Y-107931076D01*
X94854190Y-107870360D01*
X94830436Y-107863385D01*
X94790392Y-107851627D01*
X94790388Y-107851626D01*
X94786069Y-107850358D01*
X94781620Y-107849718D01*
X94781614Y-107849717D01*
X94645847Y-107830197D01*
X94645842Y-107830197D01*
X94641400Y-107829558D01*
X93157825Y-107829558D01*
X93130049Y-107831046D01*
X93116899Y-107831751D01*
X93047806Y-107815423D01*
X92998508Y-107764332D01*
X92984659Y-107694699D01*
X93010654Y-107628633D01*
X93034590Y-107605108D01*
X93077673Y-107572819D01*
X93129498Y-107503669D01*
X93186358Y-107461155D01*
X93194825Y-107458339D01*
X93219535Y-107451083D01*
X93220740Y-107449693D01*
X93222411Y-107442010D01*
X93222411Y-107364888D01*
X93222042Y-107358067D01*
X93218503Y-107325488D01*
X93218503Y-107298274D01*
X93222543Y-107261086D01*
X93222912Y-107257692D01*
X93222912Y-106561424D01*
X93218756Y-106523164D01*
X93218756Y-106495951D01*
X93222543Y-106461091D01*
X93222543Y-106461087D01*
X93222912Y-106457692D01*
X93222912Y-105761424D01*
X93216157Y-105699242D01*
X93174562Y-105588287D01*
X93169379Y-105517481D01*
X93203300Y-105455112D01*
X93265555Y-105420982D01*
X93292544Y-105418058D01*
X93361171Y-105418058D01*
X93382072Y-105419804D01*
X93401868Y-105423134D01*
X93408290Y-105423212D01*
X93409562Y-105423228D01*
X93409565Y-105423228D01*
X93414420Y-105423287D01*
X93419228Y-105422598D01*
X93419232Y-105422598D01*
X93424502Y-105421843D01*
X93431961Y-105421001D01*
X93522160Y-105413525D01*
X93622277Y-105405228D01*
X93824463Y-105354025D01*
X94015465Y-105270241D01*
X94019823Y-105267394D01*
X94019828Y-105267391D01*
X94050090Y-105247619D01*
X94118058Y-105227105D01*
X94186328Y-105246593D01*
G37*
%TD.AperFunction*%
%TD*%
M02*
