M48
; DRILL file {KiCad (6.0.7)} date Wed Jan  4 15:29:54 2023
; FORMAT={-:-/ absolute / inch / decimal}
; #@! TF.CreationDate,2023-01-04T15:29:54-05:00
; #@! TF.GenerationSoftware,Kicad,Pcbnew,(6.0.7)
; #@! TF.FileFunction,Plated,1,2,PTH
FMAT,2
INCH
; #@! TA.AperFunction,Plated,PTH,ViaDrill
T1C0.0157
; #@! TA.AperFunction,Plated,PTH,ComponentDrill
T2C0.0315
%
G90
G05
T1
X3.714Y-4.198
X3.725Y-4.413
X3.767Y-4.241
X3.877Y-4.544
X4.035Y-4.678
X4.083Y-4.438
X4.2Y-4.674
T2
X4.3Y-2.8
X4.3Y-2.9
X4.3Y-3.0
X4.3Y-3.1
X4.3Y-3.2
X4.3Y-3.3
X4.3Y-3.4
X4.3Y-3.5
X4.3Y-3.6
X4.3Y-3.7
X4.3Y-3.8
X4.3Y-3.9
X4.3Y-4.0
X4.3Y-4.1
X4.3Y-4.2
X4.3Y-4.3
X4.3Y-4.4
X4.3Y-4.5
X4.3Y-4.6
X4.3Y-4.7
X4.3Y-4.8
X4.3Y-4.9
X4.3Y-5.0
X4.3Y-5.1
X4.4Y-2.8
X4.4Y-2.9
X4.4Y-3.0
X4.4Y-3.1
X4.4Y-3.2
X4.4Y-3.3
X4.4Y-3.4
X4.4Y-3.5
X4.4Y-3.6
X4.4Y-3.7
X4.4Y-3.8
X4.4Y-3.9
X4.4Y-4.0
X4.4Y-4.1
X4.4Y-4.2
X4.4Y-4.3
X4.4Y-4.4
X4.4Y-4.5
X4.4Y-4.6
X4.4Y-4.7
X4.4Y-4.8
X4.4Y-4.9
X4.4Y-5.0
X4.4Y-5.1
X4.5Y-2.8
X4.5Y-2.9
X4.5Y-3.0
X4.5Y-3.1
X4.5Y-3.2
X4.5Y-3.3
X4.5Y-3.4
X4.5Y-3.5
X4.5Y-3.6
X4.5Y-3.7
X4.5Y-3.8
X4.5Y-3.9
X4.5Y-4.0
X4.5Y-4.1
X4.5Y-4.2
X4.5Y-4.3
X4.5Y-4.4
X4.5Y-4.5
X4.5Y-4.6
X4.5Y-4.7
X4.5Y-4.8
X4.5Y-4.9
X4.5Y-5.0
X4.5Y-5.1
X4.6Y-2.8
X4.6Y-2.9
X4.6Y-3.0
X4.6Y-3.1
X4.6Y-3.2
X4.6Y-3.3
X4.6Y-3.4
X4.6Y-3.5
X4.6Y-3.6
X4.6Y-3.7
X4.6Y-3.8
X4.6Y-3.9
X4.6Y-4.0
X4.6Y-4.1
X4.6Y-4.2
X4.6Y-4.3
X4.6Y-4.4
X4.6Y-4.5
X4.6Y-4.6
X4.6Y-4.7
X4.6Y-4.8
X4.6Y-4.9
X4.6Y-5.0
X4.6Y-5.1
X4.7Y-2.8
X4.7Y-2.9
X4.7Y-3.0
X4.7Y-3.1
X4.7Y-3.2
X4.7Y-3.3
X4.7Y-3.4
X4.7Y-3.5
X4.7Y-3.6
X4.7Y-3.7
X4.7Y-3.8
X4.7Y-3.9
X4.7Y-4.0
X4.7Y-4.1
X4.7Y-4.2
X4.7Y-4.3
X4.7Y-4.4
X4.7Y-4.5
X4.7Y-4.6
X4.7Y-4.7
X4.7Y-4.8
X4.7Y-4.9
X4.7Y-5.0
X4.7Y-5.1
X4.8Y-2.8
X4.8Y-2.9
X4.8Y-3.0
X4.8Y-3.1
X4.8Y-3.2
X4.8Y-3.3
X4.8Y-3.4
X4.8Y-3.5
X4.8Y-3.6
X4.8Y-3.7
X4.8Y-3.8
X4.8Y-3.9
X4.8Y-4.0
X4.8Y-4.1
X4.8Y-4.2
X4.8Y-4.3
X4.8Y-4.4
X4.8Y-4.5
X4.8Y-4.6
X4.8Y-4.7
X4.8Y-4.8
X4.8Y-4.9
X4.8Y-5.0
X4.8Y-5.1
X4.8985Y-2.8021
X4.8985Y-2.9021
X4.8985Y-3.0021
X4.8985Y-3.1021
X4.8985Y-3.2021
X4.8985Y-3.3021
X4.8985Y-3.4021
X4.8985Y-3.5021
X4.8985Y-3.6021
X4.8985Y-3.7021
X4.8985Y-3.8021
X4.8985Y-3.9021
X4.8985Y-4.0021
X4.8985Y-4.1021
X4.8985Y-4.2021
X4.8985Y-4.3021
X4.8985Y-4.4021
X4.8985Y-4.5021
X4.8985Y-4.6021
X4.8985Y-4.7021
X4.8985Y-4.8021
X4.8985Y-4.9021
X4.8985Y-5.0021
X4.8985Y-5.1021
X4.9971Y-2.8021
X4.9971Y-2.9021
X4.9971Y-3.0021
X4.9971Y-3.1021
X4.9971Y-3.2021
X4.9971Y-3.3021
X4.9971Y-3.4021
X4.9971Y-3.5021
X4.9971Y-3.6021
X4.9971Y-3.7021
X4.9971Y-3.8021
X4.9971Y-3.9021
X4.9971Y-4.0021
X4.9971Y-4.1021
X4.9971Y-4.2021
X4.9971Y-4.3021
X4.9971Y-4.4021
X4.9971Y-4.5021
X4.9971Y-4.6021
X4.9971Y-4.7021
X4.9971Y-4.8021
X4.9971Y-4.9021
X4.9971Y-5.0021
X4.9971Y-5.1021
X5.1032Y-2.8021
X5.1032Y-2.9021
X5.1032Y-3.0021
X5.1032Y-3.1021
X5.1032Y-3.2021
X5.1032Y-3.3021
X5.1032Y-3.4021
X5.1032Y-3.5021
X5.1032Y-3.6021
X5.1032Y-3.7021
X5.1032Y-3.8021
X5.1032Y-3.9021
X5.1032Y-4.0021
X5.1032Y-4.1021
X5.1032Y-4.2021
X5.1032Y-4.3021
X5.1032Y-4.4021
X5.1032Y-4.5021
X5.1032Y-4.6021
X5.1032Y-4.7021
X5.1032Y-4.8021
X5.1032Y-4.9021
X5.1032Y-5.0021
X5.1032Y-5.1021
X5.2Y-2.8
X5.2Y-2.9
X5.2Y-3.0
X5.2Y-3.1
X5.2Y-3.2
X5.2Y-3.3
X5.2Y-3.4
X5.2Y-3.5
X5.2Y-3.6
X5.2Y-3.7
X5.2Y-3.8
X5.2Y-3.9
X5.2Y-4.0
X5.2Y-4.1
X5.2Y-4.2
X5.2Y-4.3
X5.2Y-4.4
X5.2Y-4.5
X5.2Y-4.6
X5.2Y-4.7
X5.2Y-4.8
X5.2Y-4.9
X5.2Y-5.0
X5.2Y-5.1
X5.3Y-2.8
X5.3Y-2.9
X5.3Y-3.0
X5.3Y-3.1
X5.3Y-3.2
X5.3Y-3.3
X5.3Y-3.4
X5.3Y-3.5
X5.3Y-3.6
X5.3Y-3.7
X5.3Y-3.8
X5.3Y-3.9
X5.3Y-4.0
X5.3Y-4.1
X5.3Y-4.2
X5.3Y-4.3
X5.3Y-4.4
X5.3Y-4.5
X5.3Y-4.6
X5.3Y-4.7
X5.3Y-4.8
X5.3Y-4.9
X5.3Y-5.0
X5.3Y-5.1
X5.4Y-2.8
X5.4Y-2.9
X5.4Y-3.0
X5.4Y-3.1
X5.4Y-3.2
X5.4Y-3.3
X5.4Y-3.4
X5.4Y-3.5
X5.4Y-3.6
X5.4Y-3.7
X5.4Y-3.8
X5.4Y-3.9
X5.4Y-4.0
X5.4Y-4.1
X5.4Y-4.2
X5.4Y-4.3
X5.4Y-4.4
X5.4Y-4.5
X5.4Y-4.6
X5.4Y-4.7
X5.4Y-4.8
X5.4Y-4.9
X5.4Y-5.0
X5.4Y-5.1
X5.5Y-2.8
X5.5Y-2.9
X5.5Y-3.0
X5.5Y-3.1
X5.5Y-3.2
X5.5Y-3.3
X5.5Y-3.4
X5.5Y-3.5
X5.5Y-3.6
X5.5Y-3.7
X5.5Y-3.8
X5.5Y-3.9
X5.5Y-4.0
X5.5Y-4.1
X5.5Y-4.2
X5.5Y-4.3
X5.5Y-4.4
X5.5Y-4.5
X5.5Y-4.6
X5.5Y-4.7
X5.5Y-4.8
X5.5Y-4.9
X5.5Y-5.0
X5.5Y-5.1
X5.6Y-2.8
X5.6Y-2.9
X5.6Y-3.0
X5.6Y-3.1
X5.6Y-3.2
X5.6Y-3.3
X5.6Y-3.4
X5.6Y-3.5
X5.6Y-3.6
X5.6Y-3.7
X5.6Y-3.8
X5.6Y-3.9
X5.6Y-4.0
X5.6Y-4.1
X5.6Y-4.2
X5.6Y-4.3
X5.6Y-4.4
X5.6Y-4.5
X5.6Y-4.6
X5.6Y-4.7
X5.6Y-4.8
X5.6Y-4.9
X5.6Y-5.0
X5.6Y-5.1
X5.7Y-2.8
X5.7Y-2.9
X5.7Y-3.0
X5.7Y-3.1
X5.7Y-3.2
X5.7Y-3.3
X5.7Y-3.4
X5.7Y-3.5
X5.7Y-3.6
X5.7Y-3.7
X5.7Y-3.8
X5.7Y-3.9
X5.7Y-4.0
X5.7Y-4.1
X5.7Y-4.2
X5.7Y-4.3
X5.7Y-4.4
X5.7Y-4.5
X5.7Y-4.6
X5.7Y-4.7
X5.7Y-4.8
X5.7Y-4.9
X5.7Y-5.0
X5.7Y-5.1
X5.8Y-2.8
X5.8Y-2.9
X5.8Y-3.0
X5.8Y-3.1
X5.8Y-3.2
X5.8Y-3.3
X5.8Y-3.4
X5.8Y-3.5
X5.8Y-3.6
X5.8Y-3.7
X5.8Y-3.8
X5.8Y-3.9
X5.8Y-4.0
X5.8Y-4.1
X5.8Y-4.2
X5.8Y-4.3
X5.8Y-4.4
X5.8Y-4.5
X5.8Y-4.6
X5.8Y-4.7
X5.8Y-4.8
X5.8Y-4.9
X5.8Y-5.0
X5.8Y-5.1
X5.8985Y-2.8021
X5.8985Y-2.9021
X5.8985Y-3.0021
X5.8985Y-3.1021
X5.8985Y-3.2021
X5.8985Y-3.3021
X5.8985Y-3.4021
X5.8985Y-3.5021
X5.8985Y-3.6021
X5.8985Y-3.7021
X5.8985Y-3.8021
X5.8985Y-3.9021
X5.8985Y-4.0021
X5.8985Y-4.1021
X5.8985Y-4.2021
X5.8985Y-4.3021
X5.8985Y-4.4021
X5.8985Y-4.5021
X5.8985Y-4.6021
X5.8985Y-4.7021
X5.8985Y-4.8021
X5.8985Y-4.9021
X5.8985Y-5.0021
X5.8985Y-5.1021
X5.9971Y-2.8021
X5.9971Y-2.9021
X5.9971Y-3.0021
X5.9971Y-3.1021
X5.9971Y-3.2021
X5.9971Y-3.3021
X5.9971Y-3.4021
X5.9971Y-3.5021
X5.9971Y-3.6021
X5.9971Y-3.7021
X5.9971Y-3.8021
X5.9971Y-3.9021
X5.9971Y-4.0021
X5.9971Y-4.1021
X5.9971Y-4.2021
X5.9971Y-4.3021
X5.9971Y-4.4021
X5.9971Y-4.5021
X5.9971Y-4.6021
X5.9971Y-4.7021
X5.9971Y-4.8021
X5.9971Y-4.9021
X5.9971Y-5.0021
X5.9971Y-5.1021
X6.1032Y-2.8021
X6.1032Y-2.9021
X6.1032Y-3.0021
X6.1032Y-3.1021
X6.1032Y-3.2021
X6.1032Y-3.3021
X6.1032Y-3.4021
X6.1032Y-3.5021
X6.1032Y-3.6021
X6.1032Y-3.7021
X6.1032Y-3.8021
X6.1032Y-3.9021
X6.1032Y-4.0021
X6.1032Y-4.1021
X6.1032Y-4.2021
X6.1032Y-4.3021
X6.1032Y-4.4021
X6.1032Y-4.5021
X6.1032Y-4.6021
X6.1032Y-4.7021
X6.1032Y-4.8021
X6.1032Y-4.9021
X6.1032Y-5.0021
X6.1032Y-5.1021
X6.2Y-2.8
X6.2Y-2.9
X6.2Y-3.0
X6.2Y-3.1
X6.2Y-3.2
X6.2Y-3.3
X6.2Y-3.4
X6.2Y-3.5
X6.2Y-3.6
X6.2Y-3.7
X6.2Y-3.8
X6.2Y-3.9
X6.2Y-4.0
X6.2Y-4.1
X6.2Y-4.2
X6.2Y-4.3
X6.2Y-4.4
X6.2Y-4.5
X6.2Y-4.6
X6.2Y-4.7
X6.2Y-4.8
X6.2Y-4.9
X6.2Y-5.0
X6.2Y-5.1
X6.3Y-2.8
X6.3Y-2.9
X6.3Y-3.0
X6.3Y-3.1
X6.3Y-3.2
X6.3Y-3.3
X6.3Y-3.4
X6.3Y-3.5
X6.3Y-3.6
X6.3Y-3.7
X6.3Y-3.8
X6.3Y-3.9
X6.3Y-4.0
X6.3Y-4.1
X6.3Y-4.2
X6.3Y-4.3
X6.3Y-4.4
X6.3Y-4.5
X6.3Y-4.6
X6.3Y-4.7
X6.3Y-4.8
X6.3Y-4.9
X6.3Y-5.0
X6.3Y-5.1
X6.4Y-2.8
X6.4Y-2.9
X6.4Y-3.0
X6.4Y-3.1
X6.4Y-3.2
X6.4Y-3.3
X6.4Y-3.4
X6.4Y-3.5
X6.4Y-3.6
X6.4Y-3.7
X6.4Y-3.8
X6.4Y-3.9
X6.4Y-4.0
X6.4Y-4.1
X6.4Y-4.2
X6.4Y-4.3
X6.4Y-4.4
X6.4Y-4.5
X6.4Y-4.6
X6.4Y-4.7
X6.4Y-4.8
X6.4Y-4.9
X6.4Y-5.0
X6.4Y-5.1
X6.5Y-2.8
X6.5Y-2.9
X6.5Y-3.0
X6.5Y-3.1
X6.5Y-3.2
X6.5Y-3.3
X6.5Y-3.4
X6.5Y-3.5
X6.5Y-3.6
X6.5Y-3.7
X6.5Y-3.8
X6.5Y-3.9
X6.5Y-4.0
X6.5Y-4.1
X6.5Y-4.2
X6.5Y-4.3
X6.5Y-4.4
X6.5Y-4.5
X6.5Y-4.6
X6.5Y-4.7
X6.5Y-4.8
X6.5Y-4.9
X6.5Y-5.0
X6.5Y-5.1
X6.6Y-2.8
X6.6Y-2.9
X6.6Y-3.0
X6.6Y-3.1
X6.6Y-3.2
X6.6Y-3.3
X6.6Y-3.4
X6.6Y-3.5
X6.6Y-3.6
X6.6Y-3.7
X6.6Y-3.8
X6.6Y-3.9
X6.6Y-4.0
X6.6Y-4.1
X6.6Y-4.2
X6.6Y-4.3
X6.6Y-4.4
X6.6Y-4.5
X6.6Y-4.6
X6.6Y-4.7
X6.6Y-4.8
X6.6Y-4.9
X6.6Y-5.0
X6.6Y-5.1
X6.7Y-2.8
X6.7Y-2.9
X6.7Y-3.0
X6.7Y-3.1
X6.7Y-3.2
X6.7Y-3.3
X6.7Y-3.4
X6.7Y-3.5
X6.7Y-3.6
X6.7Y-3.7
X6.7Y-3.8
X6.7Y-3.9
X6.7Y-4.0
X6.7Y-4.1
X6.7Y-4.2
X6.7Y-4.3
X6.7Y-4.4
X6.7Y-4.5
X6.7Y-4.6
X6.7Y-4.7
X6.7Y-4.8
X6.7Y-4.9
X6.7Y-5.0
X6.7Y-5.1
X6.8Y-2.8
X6.8Y-2.9
X6.8Y-3.0
X6.8Y-3.1
X6.8Y-3.2
X6.8Y-3.3
X6.8Y-3.4
X6.8Y-3.5
X6.8Y-3.6
X6.8Y-3.7
X6.8Y-3.8
X6.8Y-3.9
X6.8Y-4.0
X6.8Y-4.1
X6.8Y-4.2
X6.8Y-4.3
X6.8Y-4.4
X6.8Y-4.5
X6.8Y-4.6
X6.8Y-4.7
X6.8Y-4.8
X6.8Y-4.9
X6.8Y-5.0
X6.8Y-5.1
X6.8985Y-2.8021
X6.8985Y-2.9021
X6.8985Y-3.0021
X6.8985Y-3.1021
X6.8985Y-3.2021
X6.8985Y-3.3021
X6.8985Y-3.4021
X6.8985Y-3.5021
X6.8985Y-3.6021
X6.8985Y-3.7021
X6.8985Y-3.8021
X6.8985Y-3.9021
X6.8985Y-4.0021
X6.8985Y-4.1021
X6.8985Y-4.2021
X6.8985Y-4.3021
X6.8985Y-4.4021
X6.8985Y-4.5021
X6.8985Y-4.6021
X6.8985Y-4.7021
X6.8985Y-4.8021
X6.8985Y-4.9021
X6.8985Y-5.0021
X6.8985Y-5.1021
X7.0Y-2.8
X7.0Y-2.9
X7.0Y-3.0
X7.0Y-3.1
X7.0Y-3.2
X7.0Y-3.3
X7.0Y-3.4
X7.0Y-3.5
X7.0Y-3.6
X7.0Y-3.7
X7.0Y-3.8
X7.0Y-3.9
X7.0Y-4.0
X7.0Y-4.1
X7.0Y-4.2
X7.0Y-4.3
X7.0Y-4.4
X7.0Y-4.5
X7.0Y-4.6
X7.0Y-4.7
X7.0Y-4.8
X7.0Y-4.9
X7.0Y-5.0
X7.0Y-5.1
T0
M30
