%TF.GenerationSoftware,KiCad,Pcbnew,(6.0.7)*%
%TF.CreationDate,2023-01-04T15:29:54-05:00*%
%TF.ProjectId,PrototypeBoard,50726f74-6f74-4797-9065-426f6172642e,rev?*%
%TF.SameCoordinates,Original*%
%TF.FileFunction,Legend,Top*%
%TF.FilePolarity,Positive*%
%FSLAX46Y46*%
G04 Gerber Fmt 4.6, Leading zero omitted, Abs format (unit mm)*
G04 Created by KiCad (PCBNEW (6.0.7)) date 2023-01-04 15:29:54*
%MOMM*%
%LPD*%
G01*
G04 APERTURE LIST*
%ADD10C,0.150000*%
%ADD11C,0.200000*%
%ADD12R,2.350000X0.600000*%
%ADD13R,2.000000X2.000000*%
G04 APERTURE END LIST*
D10*
X185067380Y-110631428D02*
X184067380Y-110631428D01*
X184067380Y-110393333D01*
X184115000Y-110250476D01*
X184210238Y-110155238D01*
X184305476Y-110107619D01*
X184495952Y-110060000D01*
X184638809Y-110060000D01*
X184829285Y-110107619D01*
X184924523Y-110155238D01*
X185019761Y-110250476D01*
X185067380Y-110393333D01*
X185067380Y-110631428D01*
X185019761Y-109250476D02*
X185067380Y-109345714D01*
X185067380Y-109536190D01*
X185019761Y-109631428D01*
X184924523Y-109679047D01*
X184543571Y-109679047D01*
X184448333Y-109631428D01*
X184400714Y-109536190D01*
X184400714Y-109345714D01*
X184448333Y-109250476D01*
X184543571Y-109202857D01*
X184638809Y-109202857D01*
X184734047Y-109679047D01*
X184400714Y-108869523D02*
X185067380Y-108631428D01*
X184400714Y-108393333D01*
X184067380Y-108155238D02*
X184067380Y-107583809D01*
X185067380Y-107869523D02*
X184067380Y-107869523D01*
X185019761Y-106869523D02*
X185067380Y-106964761D01*
X185067380Y-107155238D01*
X185019761Y-107250476D01*
X184924523Y-107298095D01*
X184543571Y-107298095D01*
X184448333Y-107250476D01*
X184400714Y-107155238D01*
X184400714Y-106964761D01*
X184448333Y-106869523D01*
X184543571Y-106821904D01*
X184638809Y-106821904D01*
X184734047Y-107298095D01*
X185067380Y-106393333D02*
X184400714Y-106393333D01*
X184591190Y-106393333D02*
X184495952Y-106345714D01*
X184448333Y-106298095D01*
X184400714Y-106202857D01*
X184400714Y-106107619D01*
X185067380Y-105774285D02*
X184400714Y-105774285D01*
X184495952Y-105774285D02*
X184448333Y-105726666D01*
X184400714Y-105631428D01*
X184400714Y-105488571D01*
X184448333Y-105393333D01*
X184543571Y-105345714D01*
X185067380Y-105345714D01*
X184543571Y-105345714D02*
X184448333Y-105298095D01*
X184400714Y-105202857D01*
X184400714Y-105060000D01*
X184448333Y-104964761D01*
X184543571Y-104917142D01*
X185067380Y-104917142D01*
X184543571Y-103679047D02*
X184543571Y-103345714D01*
X185067380Y-103202857D02*
X185067380Y-103679047D01*
X184067380Y-103679047D01*
X184067380Y-103202857D01*
X185067380Y-102869523D02*
X184400714Y-102345714D01*
X184400714Y-102869523D02*
X185067380Y-102345714D01*
X184400714Y-102107619D02*
X184400714Y-101726666D01*
X184067380Y-101964761D02*
X184924523Y-101964761D01*
X185019761Y-101917142D01*
X185067380Y-101821904D01*
X185067380Y-101726666D01*
X185067380Y-100631428D02*
X184067380Y-100631428D01*
X184067380Y-100250476D01*
X184115000Y-100155238D01*
X184162619Y-100107619D01*
X184257857Y-100060000D01*
X184400714Y-100060000D01*
X184495952Y-100107619D01*
X184543571Y-100155238D01*
X184591190Y-100250476D01*
X184591190Y-100631428D01*
X185067380Y-99631428D02*
X184400714Y-99631428D01*
X184591190Y-99631428D02*
X184495952Y-99583809D01*
X184448333Y-99536190D01*
X184400714Y-99440952D01*
X184400714Y-99345714D01*
X185067380Y-98869523D02*
X185019761Y-98964761D01*
X184972142Y-99012380D01*
X184876904Y-99060000D01*
X184591190Y-99060000D01*
X184495952Y-99012380D01*
X184448333Y-98964761D01*
X184400714Y-98869523D01*
X184400714Y-98726666D01*
X184448333Y-98631428D01*
X184495952Y-98583809D01*
X184591190Y-98536190D01*
X184876904Y-98536190D01*
X184972142Y-98583809D01*
X185019761Y-98631428D01*
X185067380Y-98726666D01*
X185067380Y-98869523D01*
X184400714Y-98250476D02*
X184400714Y-97869523D01*
X184067380Y-98107619D02*
X184924523Y-98107619D01*
X185019761Y-98060000D01*
X185067380Y-97964761D01*
X185067380Y-97869523D01*
X185067380Y-97393333D02*
X185019761Y-97488571D01*
X184972142Y-97536190D01*
X184876904Y-97583809D01*
X184591190Y-97583809D01*
X184495952Y-97536190D01*
X184448333Y-97488571D01*
X184400714Y-97393333D01*
X184400714Y-97250476D01*
X184448333Y-97155238D01*
X184495952Y-97107619D01*
X184591190Y-97060000D01*
X184876904Y-97060000D01*
X184972142Y-97107619D01*
X185019761Y-97155238D01*
X185067380Y-97250476D01*
X185067380Y-97393333D01*
X184400714Y-96774285D02*
X184400714Y-96393333D01*
X184067380Y-96631428D02*
X184924523Y-96631428D01*
X185019761Y-96583809D01*
X185067380Y-96488571D01*
X185067380Y-96393333D01*
X184400714Y-96155238D02*
X185067380Y-95917142D01*
X184400714Y-95679047D02*
X185067380Y-95917142D01*
X185305476Y-96012380D01*
X185353095Y-96060000D01*
X185400714Y-96155238D01*
X184400714Y-95298095D02*
X185400714Y-95298095D01*
X184448333Y-95298095D02*
X184400714Y-95202857D01*
X184400714Y-95012380D01*
X184448333Y-94917142D01*
X184495952Y-94869523D01*
X184591190Y-94821904D01*
X184876904Y-94821904D01*
X184972142Y-94869523D01*
X185019761Y-94917142D01*
X185067380Y-95012380D01*
X185067380Y-95202857D01*
X185019761Y-95298095D01*
X185067380Y-94393333D02*
X184400714Y-94393333D01*
X184067380Y-94393333D02*
X184115000Y-94440952D01*
X184162619Y-94393333D01*
X184115000Y-94345714D01*
X184067380Y-94393333D01*
X184162619Y-94393333D01*
X184400714Y-93917142D02*
X185067380Y-93917142D01*
X184495952Y-93917142D02*
X184448333Y-93869523D01*
X184400714Y-93774285D01*
X184400714Y-93631428D01*
X184448333Y-93536190D01*
X184543571Y-93488571D01*
X185067380Y-93488571D01*
X184400714Y-92583809D02*
X185210238Y-92583809D01*
X185305476Y-92631428D01*
X185353095Y-92679047D01*
X185400714Y-92774285D01*
X185400714Y-92917142D01*
X185353095Y-93012380D01*
X185019761Y-92583809D02*
X185067380Y-92679047D01*
X185067380Y-92869523D01*
X185019761Y-92964761D01*
X184972142Y-93012380D01*
X184876904Y-93060000D01*
X184591190Y-93060000D01*
X184495952Y-93012380D01*
X184448333Y-92964761D01*
X184400714Y-92869523D01*
X184400714Y-92679047D01*
X184448333Y-92583809D01*
X184543571Y-91012380D02*
X184591190Y-90869523D01*
X184638809Y-90821904D01*
X184734047Y-90774285D01*
X184876904Y-90774285D01*
X184972142Y-90821904D01*
X185019761Y-90869523D01*
X185067380Y-90964761D01*
X185067380Y-91345714D01*
X184067380Y-91345714D01*
X184067380Y-91012380D01*
X184115000Y-90917142D01*
X184162619Y-90869523D01*
X184257857Y-90821904D01*
X184353095Y-90821904D01*
X184448333Y-90869523D01*
X184495952Y-90917142D01*
X184543571Y-91012380D01*
X184543571Y-91345714D01*
X185067380Y-90202857D02*
X185019761Y-90298095D01*
X184972142Y-90345714D01*
X184876904Y-90393333D01*
X184591190Y-90393333D01*
X184495952Y-90345714D01*
X184448333Y-90298095D01*
X184400714Y-90202857D01*
X184400714Y-90060000D01*
X184448333Y-89964761D01*
X184495952Y-89917142D01*
X184591190Y-89869523D01*
X184876904Y-89869523D01*
X184972142Y-89917142D01*
X185019761Y-89964761D01*
X185067380Y-90060000D01*
X185067380Y-90202857D01*
X185067380Y-89012380D02*
X184543571Y-89012380D01*
X184448333Y-89060000D01*
X184400714Y-89155238D01*
X184400714Y-89345714D01*
X184448333Y-89440952D01*
X185019761Y-89012380D02*
X185067380Y-89107619D01*
X185067380Y-89345714D01*
X185019761Y-89440952D01*
X184924523Y-89488571D01*
X184829285Y-89488571D01*
X184734047Y-89440952D01*
X184686428Y-89345714D01*
X184686428Y-89107619D01*
X184638809Y-89012380D01*
X185067380Y-88536190D02*
X184400714Y-88536190D01*
X184591190Y-88536190D02*
X184495952Y-88488571D01*
X184448333Y-88440952D01*
X184400714Y-88345714D01*
X184400714Y-88250476D01*
X185067380Y-87488571D02*
X184067380Y-87488571D01*
X185019761Y-87488571D02*
X185067380Y-87583809D01*
X185067380Y-87774285D01*
X185019761Y-87869523D01*
X184972142Y-87917142D01*
X184876904Y-87964761D01*
X184591190Y-87964761D01*
X184495952Y-87917142D01*
X184448333Y-87869523D01*
X184400714Y-87774285D01*
X184400714Y-87583809D01*
X184448333Y-87488571D01*
X185772619Y-106798095D02*
X185725000Y-106750476D01*
X185677380Y-106655238D01*
X185677380Y-106417142D01*
X185725000Y-106321904D01*
X185772619Y-106274285D01*
X185867857Y-106226666D01*
X185963095Y-106226666D01*
X186105952Y-106274285D01*
X186677380Y-106845714D01*
X186677380Y-106226666D01*
X185677380Y-105607619D02*
X185677380Y-105512380D01*
X185725000Y-105417142D01*
X185772619Y-105369523D01*
X185867857Y-105321904D01*
X186058333Y-105274285D01*
X186296428Y-105274285D01*
X186486904Y-105321904D01*
X186582142Y-105369523D01*
X186629761Y-105417142D01*
X186677380Y-105512380D01*
X186677380Y-105607619D01*
X186629761Y-105702857D01*
X186582142Y-105750476D01*
X186486904Y-105798095D01*
X186296428Y-105845714D01*
X186058333Y-105845714D01*
X185867857Y-105798095D01*
X185772619Y-105750476D01*
X185725000Y-105702857D01*
X185677380Y-105607619D01*
X185772619Y-104893333D02*
X185725000Y-104845714D01*
X185677380Y-104750476D01*
X185677380Y-104512380D01*
X185725000Y-104417142D01*
X185772619Y-104369523D01*
X185867857Y-104321904D01*
X185963095Y-104321904D01*
X186105952Y-104369523D01*
X186677380Y-104940952D01*
X186677380Y-104321904D01*
X185677380Y-103988571D02*
X185677380Y-103369523D01*
X186058333Y-103702857D01*
X186058333Y-103560000D01*
X186105952Y-103464761D01*
X186153571Y-103417142D01*
X186248809Y-103369523D01*
X186486904Y-103369523D01*
X186582142Y-103417142D01*
X186629761Y-103464761D01*
X186677380Y-103560000D01*
X186677380Y-103845714D01*
X186629761Y-103940952D01*
X186582142Y-103988571D01*
X186296428Y-102940952D02*
X186296428Y-102179047D01*
X185677380Y-101512380D02*
X185677380Y-101417142D01*
X185725000Y-101321904D01*
X185772619Y-101274285D01*
X185867857Y-101226666D01*
X186058333Y-101179047D01*
X186296428Y-101179047D01*
X186486904Y-101226666D01*
X186582142Y-101274285D01*
X186629761Y-101321904D01*
X186677380Y-101417142D01*
X186677380Y-101512380D01*
X186629761Y-101607619D01*
X186582142Y-101655238D01*
X186486904Y-101702857D01*
X186296428Y-101750476D01*
X186058333Y-101750476D01*
X185867857Y-101702857D01*
X185772619Y-101655238D01*
X185725000Y-101607619D01*
X185677380Y-101512380D01*
X186677380Y-100226666D02*
X186677380Y-100798095D01*
X186677380Y-100512380D02*
X185677380Y-100512380D01*
X185820238Y-100607619D01*
X185915476Y-100702857D01*
X185963095Y-100798095D01*
X186296428Y-99798095D02*
X186296428Y-99036190D01*
X185677380Y-98369523D02*
X185677380Y-98274285D01*
X185725000Y-98179047D01*
X185772619Y-98131428D01*
X185867857Y-98083809D01*
X186058333Y-98036190D01*
X186296428Y-98036190D01*
X186486904Y-98083809D01*
X186582142Y-98131428D01*
X186629761Y-98179047D01*
X186677380Y-98274285D01*
X186677380Y-98369523D01*
X186629761Y-98464761D01*
X186582142Y-98512380D01*
X186486904Y-98560000D01*
X186296428Y-98607619D01*
X186058333Y-98607619D01*
X185867857Y-98560000D01*
X185772619Y-98512380D01*
X185725000Y-98464761D01*
X185677380Y-98369523D01*
X186010714Y-97179047D02*
X186677380Y-97179047D01*
X185629761Y-97417142D02*
X186344047Y-97655238D01*
X186344047Y-97036190D01*
X186677380Y-95321904D02*
X186201190Y-95655238D01*
X186677380Y-95893333D02*
X185677380Y-95893333D01*
X185677380Y-95512380D01*
X185725000Y-95417142D01*
X185772619Y-95369523D01*
X185867857Y-95321904D01*
X186010714Y-95321904D01*
X186105952Y-95369523D01*
X186153571Y-95417142D01*
X186201190Y-95512380D01*
X186201190Y-95893333D01*
X186629761Y-94512380D02*
X186677380Y-94607619D01*
X186677380Y-94798095D01*
X186629761Y-94893333D01*
X186534523Y-94940952D01*
X186153571Y-94940952D01*
X186058333Y-94893333D01*
X186010714Y-94798095D01*
X186010714Y-94607619D01*
X186058333Y-94512380D01*
X186153571Y-94464761D01*
X186248809Y-94464761D01*
X186344047Y-94940952D01*
X186010714Y-94131428D02*
X186677380Y-93893333D01*
X186010714Y-93655238D01*
X186582142Y-93274285D02*
X186629761Y-93226666D01*
X186677380Y-93274285D01*
X186629761Y-93321904D01*
X186582142Y-93274285D01*
X186677380Y-93274285D01*
X185677380Y-92607619D02*
X185677380Y-92512380D01*
X185725000Y-92417142D01*
X185772619Y-92369523D01*
X185867857Y-92321904D01*
X186058333Y-92274285D01*
X186296428Y-92274285D01*
X186486904Y-92321904D01*
X186582142Y-92369523D01*
X186629761Y-92417142D01*
X186677380Y-92512380D01*
X186677380Y-92607619D01*
X186629761Y-92702857D01*
X186582142Y-92750476D01*
X186486904Y-92798095D01*
X186296428Y-92845714D01*
X186058333Y-92845714D01*
X185867857Y-92798095D01*
X185772619Y-92750476D01*
X185725000Y-92702857D01*
X185677380Y-92607619D01*
X186677380Y-91321904D02*
X186677380Y-91893333D01*
X186677380Y-91607619D02*
X185677380Y-91607619D01*
X185820238Y-91702857D01*
X185915476Y-91798095D01*
X185963095Y-91893333D01*
X101600000Y-73660000D02*
X101600000Y-127000000D01*
X109220000Y-68580000D02*
X177800000Y-68580000D01*
X180340000Y-129540000D02*
X180340000Y-71120000D01*
X109220000Y-132080000D02*
X177800000Y-132080000D01*
D11*
X106924685Y-69956800D02*
X106810400Y-69880609D01*
X106638971Y-69880609D01*
X106467542Y-69956800D01*
X106353257Y-70109180D01*
X106296114Y-70261561D01*
X106238971Y-70566323D01*
X106238971Y-70794895D01*
X106296114Y-71099657D01*
X106353257Y-71252038D01*
X106467542Y-71404419D01*
X106638971Y-71480609D01*
X106753257Y-71480609D01*
X106924685Y-71404419D01*
X106981828Y-71328228D01*
X106981828Y-70794895D01*
X106753257Y-70794895D01*
X106924685Y-72532800D02*
X106810400Y-72456609D01*
X106638971Y-72456609D01*
X106467542Y-72532800D01*
X106353257Y-72685180D01*
X106296114Y-72837561D01*
X106238971Y-73142323D01*
X106238971Y-73370895D01*
X106296114Y-73675657D01*
X106353257Y-73828038D01*
X106467542Y-73980419D01*
X106638971Y-74056609D01*
X106753257Y-74056609D01*
X106924685Y-73980419D01*
X106981828Y-73904228D01*
X106981828Y-73370895D01*
X106753257Y-73370895D01*
X105724685Y-75565942D02*
X105724685Y-76632609D01*
X105438971Y-74956419D02*
X105153257Y-76099276D01*
X105896114Y-76099276D01*
X106924685Y-75032609D02*
X106353257Y-75032609D01*
X106296114Y-75794514D01*
X106353257Y-75718323D01*
X106467542Y-75642133D01*
X106753257Y-75642133D01*
X106867542Y-75718323D01*
X106924685Y-75794514D01*
X106981828Y-75946895D01*
X106981828Y-76327847D01*
X106924685Y-76480228D01*
X106867542Y-76556419D01*
X106753257Y-76632609D01*
X106467542Y-76632609D01*
X106353257Y-76556419D01*
X106296114Y-76480228D01*
X105724685Y-78141942D02*
X105724685Y-79208609D01*
X105438971Y-77532419D02*
X105153257Y-78675276D01*
X105896114Y-78675276D01*
X106867542Y-78141942D02*
X106867542Y-79208609D01*
X106581828Y-77532419D02*
X106296114Y-78675276D01*
X107038971Y-78675276D01*
X105724685Y-80717942D02*
X105724685Y-81784609D01*
X105438971Y-80108419D02*
X105153257Y-81251276D01*
X105896114Y-81251276D01*
X106238971Y-80184609D02*
X106981828Y-80184609D01*
X106581828Y-80794133D01*
X106753257Y-80794133D01*
X106867542Y-80870323D01*
X106924685Y-80946514D01*
X106981828Y-81098895D01*
X106981828Y-81479847D01*
X106924685Y-81632228D01*
X106867542Y-81708419D01*
X106753257Y-81784609D01*
X106410400Y-81784609D01*
X106296114Y-81708419D01*
X106238971Y-81632228D01*
X105724685Y-83293942D02*
X105724685Y-84360609D01*
X105438971Y-82684419D02*
X105153257Y-83827276D01*
X105896114Y-83827276D01*
X106296114Y-82912990D02*
X106353257Y-82836800D01*
X106467542Y-82760609D01*
X106753257Y-82760609D01*
X106867542Y-82836800D01*
X106924685Y-82912990D01*
X106981828Y-83065371D01*
X106981828Y-83217752D01*
X106924685Y-83446323D01*
X106238971Y-84360609D01*
X106981828Y-84360609D01*
X105724685Y-85869942D02*
X105724685Y-86936609D01*
X105438971Y-85260419D02*
X105153257Y-86403276D01*
X105896114Y-86403276D01*
X106981828Y-86936609D02*
X106296114Y-86936609D01*
X106638971Y-86936609D02*
X106638971Y-85336609D01*
X106524685Y-85565180D01*
X106410400Y-85717561D01*
X106296114Y-85793752D01*
X105724685Y-88445942D02*
X105724685Y-89512609D01*
X105438971Y-87836419D02*
X105153257Y-88979276D01*
X105896114Y-88979276D01*
X106581828Y-87912609D02*
X106696114Y-87912609D01*
X106810400Y-87988800D01*
X106867542Y-88064990D01*
X106924685Y-88217371D01*
X106981828Y-88522133D01*
X106981828Y-88903085D01*
X106924685Y-89207847D01*
X106867542Y-89360228D01*
X106810400Y-89436419D01*
X106696114Y-89512609D01*
X106581828Y-89512609D01*
X106467542Y-89436419D01*
X106410400Y-89360228D01*
X106353257Y-89207847D01*
X106296114Y-88903085D01*
X106296114Y-88522133D01*
X106353257Y-88217371D01*
X106410400Y-88064990D01*
X106467542Y-87988800D01*
X106581828Y-87912609D01*
X105096114Y-90488609D02*
X105838971Y-90488609D01*
X105438971Y-91098133D01*
X105610400Y-91098133D01*
X105724685Y-91174323D01*
X105781828Y-91250514D01*
X105838971Y-91402895D01*
X105838971Y-91783847D01*
X105781828Y-91936228D01*
X105724685Y-92012419D01*
X105610400Y-92088609D01*
X105267542Y-92088609D01*
X105153257Y-92012419D01*
X105096114Y-91936228D01*
X106410400Y-92088609D02*
X106638971Y-92088609D01*
X106753257Y-92012419D01*
X106810400Y-91936228D01*
X106924685Y-91707657D01*
X106981828Y-91402895D01*
X106981828Y-90793371D01*
X106924685Y-90640990D01*
X106867542Y-90564800D01*
X106753257Y-90488609D01*
X106524685Y-90488609D01*
X106410400Y-90564800D01*
X106353257Y-90640990D01*
X106296114Y-90793371D01*
X106296114Y-91174323D01*
X106353257Y-91326704D01*
X106410400Y-91402895D01*
X106524685Y-91479085D01*
X106753257Y-91479085D01*
X106867542Y-91402895D01*
X106924685Y-91326704D01*
X106981828Y-91174323D01*
X105096114Y-93064609D02*
X105838971Y-93064609D01*
X105438971Y-93674133D01*
X105610400Y-93674133D01*
X105724685Y-93750323D01*
X105781828Y-93826514D01*
X105838971Y-93978895D01*
X105838971Y-94359847D01*
X105781828Y-94512228D01*
X105724685Y-94588419D01*
X105610400Y-94664609D01*
X105267542Y-94664609D01*
X105153257Y-94588419D01*
X105096114Y-94512228D01*
X106524685Y-93750323D02*
X106410400Y-93674133D01*
X106353257Y-93597942D01*
X106296114Y-93445561D01*
X106296114Y-93369371D01*
X106353257Y-93216990D01*
X106410400Y-93140800D01*
X106524685Y-93064609D01*
X106753257Y-93064609D01*
X106867542Y-93140800D01*
X106924685Y-93216990D01*
X106981828Y-93369371D01*
X106981828Y-93445561D01*
X106924685Y-93597942D01*
X106867542Y-93674133D01*
X106753257Y-93750323D01*
X106524685Y-93750323D01*
X106410400Y-93826514D01*
X106353257Y-93902704D01*
X106296114Y-94055085D01*
X106296114Y-94359847D01*
X106353257Y-94512228D01*
X106410400Y-94588419D01*
X106524685Y-94664609D01*
X106753257Y-94664609D01*
X106867542Y-94588419D01*
X106924685Y-94512228D01*
X106981828Y-94359847D01*
X106981828Y-94055085D01*
X106924685Y-93902704D01*
X106867542Y-93826514D01*
X106753257Y-93750323D01*
X105096114Y-95640609D02*
X105838971Y-95640609D01*
X105438971Y-96250133D01*
X105610400Y-96250133D01*
X105724685Y-96326323D01*
X105781828Y-96402514D01*
X105838971Y-96554895D01*
X105838971Y-96935847D01*
X105781828Y-97088228D01*
X105724685Y-97164419D01*
X105610400Y-97240609D01*
X105267542Y-97240609D01*
X105153257Y-97164419D01*
X105096114Y-97088228D01*
X106238971Y-95640609D02*
X107038971Y-95640609D01*
X106524685Y-97240609D01*
X105096114Y-98216609D02*
X105838971Y-98216609D01*
X105438971Y-98826133D01*
X105610400Y-98826133D01*
X105724685Y-98902323D01*
X105781828Y-98978514D01*
X105838971Y-99130895D01*
X105838971Y-99511847D01*
X105781828Y-99664228D01*
X105724685Y-99740419D01*
X105610400Y-99816609D01*
X105267542Y-99816609D01*
X105153257Y-99740419D01*
X105096114Y-99664228D01*
X106867542Y-98216609D02*
X106638971Y-98216609D01*
X106524685Y-98292800D01*
X106467542Y-98368990D01*
X106353257Y-98597561D01*
X106296114Y-98902323D01*
X106296114Y-99511847D01*
X106353257Y-99664228D01*
X106410400Y-99740419D01*
X106524685Y-99816609D01*
X106753257Y-99816609D01*
X106867542Y-99740419D01*
X106924685Y-99664228D01*
X106981828Y-99511847D01*
X106981828Y-99130895D01*
X106924685Y-98978514D01*
X106867542Y-98902323D01*
X106753257Y-98826133D01*
X106524685Y-98826133D01*
X106410400Y-98902323D01*
X106353257Y-98978514D01*
X106296114Y-99130895D01*
X105096114Y-100792609D02*
X105838971Y-100792609D01*
X105438971Y-101402133D01*
X105610400Y-101402133D01*
X105724685Y-101478323D01*
X105781828Y-101554514D01*
X105838971Y-101706895D01*
X105838971Y-102087847D01*
X105781828Y-102240228D01*
X105724685Y-102316419D01*
X105610400Y-102392609D01*
X105267542Y-102392609D01*
X105153257Y-102316419D01*
X105096114Y-102240228D01*
X106924685Y-100792609D02*
X106353257Y-100792609D01*
X106296114Y-101554514D01*
X106353257Y-101478323D01*
X106467542Y-101402133D01*
X106753257Y-101402133D01*
X106867542Y-101478323D01*
X106924685Y-101554514D01*
X106981828Y-101706895D01*
X106981828Y-102087847D01*
X106924685Y-102240228D01*
X106867542Y-102316419D01*
X106753257Y-102392609D01*
X106467542Y-102392609D01*
X106353257Y-102316419D01*
X106296114Y-102240228D01*
X105096114Y-103368609D02*
X105838971Y-103368609D01*
X105438971Y-103978133D01*
X105610400Y-103978133D01*
X105724685Y-104054323D01*
X105781828Y-104130514D01*
X105838971Y-104282895D01*
X105838971Y-104663847D01*
X105781828Y-104816228D01*
X105724685Y-104892419D01*
X105610400Y-104968609D01*
X105267542Y-104968609D01*
X105153257Y-104892419D01*
X105096114Y-104816228D01*
X106867542Y-103901942D02*
X106867542Y-104968609D01*
X106581828Y-103292419D02*
X106296114Y-104435276D01*
X107038971Y-104435276D01*
X105096114Y-105944609D02*
X105838971Y-105944609D01*
X105438971Y-106554133D01*
X105610400Y-106554133D01*
X105724685Y-106630323D01*
X105781828Y-106706514D01*
X105838971Y-106858895D01*
X105838971Y-107239847D01*
X105781828Y-107392228D01*
X105724685Y-107468419D01*
X105610400Y-107544609D01*
X105267542Y-107544609D01*
X105153257Y-107468419D01*
X105096114Y-107392228D01*
X106238971Y-105944609D02*
X106981828Y-105944609D01*
X106581828Y-106554133D01*
X106753257Y-106554133D01*
X106867542Y-106630323D01*
X106924685Y-106706514D01*
X106981828Y-106858895D01*
X106981828Y-107239847D01*
X106924685Y-107392228D01*
X106867542Y-107468419D01*
X106753257Y-107544609D01*
X106410400Y-107544609D01*
X106296114Y-107468419D01*
X106238971Y-107392228D01*
X105096114Y-108520609D02*
X105838971Y-108520609D01*
X105438971Y-109130133D01*
X105610400Y-109130133D01*
X105724685Y-109206323D01*
X105781828Y-109282514D01*
X105838971Y-109434895D01*
X105838971Y-109815847D01*
X105781828Y-109968228D01*
X105724685Y-110044419D01*
X105610400Y-110120609D01*
X105267542Y-110120609D01*
X105153257Y-110044419D01*
X105096114Y-109968228D01*
X106296114Y-108672990D02*
X106353257Y-108596800D01*
X106467542Y-108520609D01*
X106753257Y-108520609D01*
X106867542Y-108596800D01*
X106924685Y-108672990D01*
X106981828Y-108825371D01*
X106981828Y-108977752D01*
X106924685Y-109206323D01*
X106238971Y-110120609D01*
X106981828Y-110120609D01*
X105096114Y-111096609D02*
X105838971Y-111096609D01*
X105438971Y-111706133D01*
X105610400Y-111706133D01*
X105724685Y-111782323D01*
X105781828Y-111858514D01*
X105838971Y-112010895D01*
X105838971Y-112391847D01*
X105781828Y-112544228D01*
X105724685Y-112620419D01*
X105610400Y-112696609D01*
X105267542Y-112696609D01*
X105153257Y-112620419D01*
X105096114Y-112544228D01*
X106981828Y-112696609D02*
X106296114Y-112696609D01*
X106638971Y-112696609D02*
X106638971Y-111096609D01*
X106524685Y-111325180D01*
X106410400Y-111477561D01*
X106296114Y-111553752D01*
X105096114Y-113672609D02*
X105838971Y-113672609D01*
X105438971Y-114282133D01*
X105610400Y-114282133D01*
X105724685Y-114358323D01*
X105781828Y-114434514D01*
X105838971Y-114586895D01*
X105838971Y-114967847D01*
X105781828Y-115120228D01*
X105724685Y-115196419D01*
X105610400Y-115272609D01*
X105267542Y-115272609D01*
X105153257Y-115196419D01*
X105096114Y-115120228D01*
X106581828Y-113672609D02*
X106696114Y-113672609D01*
X106810400Y-113748800D01*
X106867542Y-113824990D01*
X106924685Y-113977371D01*
X106981828Y-114282133D01*
X106981828Y-114663085D01*
X106924685Y-114967847D01*
X106867542Y-115120228D01*
X106810400Y-115196419D01*
X106696114Y-115272609D01*
X106581828Y-115272609D01*
X106467542Y-115196419D01*
X106410400Y-115120228D01*
X106353257Y-114967847D01*
X106296114Y-114663085D01*
X106296114Y-114282133D01*
X106353257Y-113977371D01*
X106410400Y-113824990D01*
X106467542Y-113748800D01*
X106581828Y-113672609D01*
X105153257Y-116400990D02*
X105210400Y-116324800D01*
X105324685Y-116248609D01*
X105610400Y-116248609D01*
X105724685Y-116324800D01*
X105781828Y-116400990D01*
X105838971Y-116553371D01*
X105838971Y-116705752D01*
X105781828Y-116934323D01*
X105096114Y-117848609D01*
X105838971Y-117848609D01*
X106410400Y-117848609D02*
X106638971Y-117848609D01*
X106753257Y-117772419D01*
X106810400Y-117696228D01*
X106924685Y-117467657D01*
X106981828Y-117162895D01*
X106981828Y-116553371D01*
X106924685Y-116400990D01*
X106867542Y-116324800D01*
X106753257Y-116248609D01*
X106524685Y-116248609D01*
X106410400Y-116324800D01*
X106353257Y-116400990D01*
X106296114Y-116553371D01*
X106296114Y-116934323D01*
X106353257Y-117086704D01*
X106410400Y-117162895D01*
X106524685Y-117239085D01*
X106753257Y-117239085D01*
X106867542Y-117162895D01*
X106924685Y-117086704D01*
X106981828Y-116934323D01*
X105153257Y-118976990D02*
X105210400Y-118900800D01*
X105324685Y-118824609D01*
X105610400Y-118824609D01*
X105724685Y-118900800D01*
X105781828Y-118976990D01*
X105838971Y-119129371D01*
X105838971Y-119281752D01*
X105781828Y-119510323D01*
X105096114Y-120424609D01*
X105838971Y-120424609D01*
X106524685Y-119510323D02*
X106410400Y-119434133D01*
X106353257Y-119357942D01*
X106296114Y-119205561D01*
X106296114Y-119129371D01*
X106353257Y-118976990D01*
X106410400Y-118900800D01*
X106524685Y-118824609D01*
X106753257Y-118824609D01*
X106867542Y-118900800D01*
X106924685Y-118976990D01*
X106981828Y-119129371D01*
X106981828Y-119205561D01*
X106924685Y-119357942D01*
X106867542Y-119434133D01*
X106753257Y-119510323D01*
X106524685Y-119510323D01*
X106410400Y-119586514D01*
X106353257Y-119662704D01*
X106296114Y-119815085D01*
X106296114Y-120119847D01*
X106353257Y-120272228D01*
X106410400Y-120348419D01*
X106524685Y-120424609D01*
X106753257Y-120424609D01*
X106867542Y-120348419D01*
X106924685Y-120272228D01*
X106981828Y-120119847D01*
X106981828Y-119815085D01*
X106924685Y-119662704D01*
X106867542Y-119586514D01*
X106753257Y-119510323D01*
X104810400Y-123000609D02*
X104810400Y-121400609D01*
X105096114Y-121400609D01*
X105267542Y-121476800D01*
X105381828Y-121629180D01*
X105438971Y-121781561D01*
X105496114Y-122086323D01*
X105496114Y-122314895D01*
X105438971Y-122619657D01*
X105381828Y-122772038D01*
X105267542Y-122924419D01*
X105096114Y-123000609D01*
X104810400Y-123000609D01*
X106010400Y-122391085D02*
X106924685Y-122391085D01*
X104810400Y-125576609D02*
X104810400Y-123976609D01*
X105096114Y-123976609D01*
X105267542Y-124052800D01*
X105381828Y-124205180D01*
X105438971Y-124357561D01*
X105496114Y-124662323D01*
X105496114Y-124890895D01*
X105438971Y-125195657D01*
X105381828Y-125348038D01*
X105267542Y-125500419D01*
X105096114Y-125576609D01*
X104810400Y-125576609D01*
X106010400Y-124967085D02*
X106924685Y-124967085D01*
X106467542Y-125576609D02*
X106467542Y-124357561D01*
X103496114Y-126552609D02*
X104238971Y-126552609D01*
X103838971Y-127162133D01*
X104010400Y-127162133D01*
X104124685Y-127238323D01*
X104181828Y-127314514D01*
X104238971Y-127466895D01*
X104238971Y-127847847D01*
X104181828Y-128000228D01*
X104124685Y-128076419D01*
X104010400Y-128152609D01*
X103667542Y-128152609D01*
X103553257Y-128076419D01*
X103496114Y-128000228D01*
X104753257Y-128000228D02*
X104810400Y-128076419D01*
X104753257Y-128152609D01*
X104696114Y-128076419D01*
X104753257Y-128000228D01*
X104753257Y-128152609D01*
X105210400Y-126552609D02*
X105953257Y-126552609D01*
X105553257Y-127162133D01*
X105724685Y-127162133D01*
X105838971Y-127238323D01*
X105896114Y-127314514D01*
X105953257Y-127466895D01*
X105953257Y-127847847D01*
X105896114Y-128000228D01*
X105838971Y-128076419D01*
X105724685Y-128152609D01*
X105381828Y-128152609D01*
X105267542Y-128076419D01*
X105210400Y-128000228D01*
X106296114Y-126552609D02*
X106696114Y-128152609D01*
X107096114Y-126552609D01*
X105896114Y-129128609D02*
X105324685Y-129128609D01*
X105267542Y-129890514D01*
X105324685Y-129814323D01*
X105438971Y-129738133D01*
X105724685Y-129738133D01*
X105838971Y-129814323D01*
X105896114Y-129890514D01*
X105953257Y-130042895D01*
X105953257Y-130423847D01*
X105896114Y-130576228D01*
X105838971Y-130652419D01*
X105724685Y-130728609D01*
X105438971Y-130728609D01*
X105324685Y-130652419D01*
X105267542Y-130576228D01*
X106296114Y-129128609D02*
X106696114Y-130728609D01*
X107096114Y-129128609D01*
%LPC*%
D12*
%TO.C,J1*%
X91539412Y-111709558D03*
X91539412Y-110909558D03*
X91539412Y-110109558D03*
X91539412Y-109309558D03*
X91539412Y-108509558D03*
X91539412Y-107709558D03*
X91539412Y-106909558D03*
X91539412Y-106109558D03*
X91539412Y-102109558D03*
X91539412Y-101309558D03*
X91539412Y-100509558D03*
X91539412Y-99709558D03*
X91539412Y-98909558D03*
X91539412Y-98109558D03*
X91539412Y-97309558D03*
X91539412Y-96509558D03*
X91539412Y-95709558D03*
X91539412Y-94909558D03*
X91539412Y-94109558D03*
X91539412Y-93309558D03*
X91539412Y-92509558D03*
X91539412Y-91709558D03*
X91539412Y-90909558D03*
X91539412Y-90109558D03*
X91539412Y-89309558D03*
X91539412Y-88509558D03*
%TD*%
D13*
%TO.C,J2*%
X177800000Y-71120000D03*
X121920000Y-71120000D03*
X144780000Y-71120000D03*
X165100000Y-71120000D03*
X129621070Y-71174005D03*
X134620000Y-71120000D03*
X139700000Y-71120000D03*
X111760000Y-71120000D03*
X132080000Y-71120000D03*
X114300000Y-71120000D03*
X142240000Y-71120000D03*
X124422847Y-71174005D03*
X147320000Y-71120000D03*
X157480000Y-71120000D03*
X152325695Y-71174005D03*
X126925695Y-71174005D03*
X119380000Y-71120000D03*
X137160000Y-71120000D03*
X162560000Y-71120000D03*
X155021070Y-71174005D03*
X160020000Y-71120000D03*
X149822847Y-71174005D03*
X167640000Y-71120000D03*
X172720000Y-71120000D03*
X170180000Y-71120000D03*
X116840000Y-71120000D03*
X175222847Y-71174005D03*
X114300000Y-73660000D03*
X124422847Y-73714005D03*
X137160000Y-73660000D03*
X129621070Y-73714005D03*
X126925695Y-73714005D03*
X175222847Y-73714005D03*
X119380000Y-73660000D03*
X155021070Y-73714005D03*
X165100000Y-73660000D03*
X134620000Y-73660000D03*
X111760000Y-73660000D03*
X144780000Y-73660000D03*
X152325695Y-73714005D03*
X121920000Y-73660000D03*
X116840000Y-73660000D03*
X172720000Y-73660000D03*
X132080000Y-73660000D03*
X149822847Y-73714005D03*
X162560000Y-73660000D03*
X170180000Y-73660000D03*
X142240000Y-73660000D03*
X139700000Y-73660000D03*
X157480000Y-73660000D03*
X177800000Y-73660000D03*
X147320000Y-73660000D03*
X160020000Y-73660000D03*
X167640000Y-73660000D03*
X144780000Y-76200000D03*
X121920000Y-76200000D03*
X119380000Y-76200000D03*
X134620000Y-76200000D03*
X175222847Y-76254005D03*
X129621070Y-76254005D03*
X142240000Y-76200000D03*
X170180000Y-76200000D03*
X172720000Y-76200000D03*
X177800000Y-76200000D03*
X139700000Y-76200000D03*
X137160000Y-76200000D03*
X116840000Y-76200000D03*
X149822847Y-76254005D03*
X132080000Y-76200000D03*
X165100000Y-76200000D03*
X162560000Y-76200000D03*
X147320000Y-76200000D03*
X124422847Y-76254005D03*
X114300000Y-76200000D03*
X152325695Y-76254005D03*
X111760000Y-76200000D03*
X167640000Y-76200000D03*
X126925695Y-76254005D03*
X157480000Y-76200000D03*
X160020000Y-76200000D03*
X155021070Y-76254005D03*
X114300000Y-78740000D03*
X142240000Y-78740000D03*
X129621070Y-78794005D03*
X149822847Y-78794005D03*
X170180000Y-78740000D03*
X147320000Y-78740000D03*
X165100000Y-78740000D03*
X116840000Y-78740000D03*
X139700000Y-78740000D03*
X172720000Y-78740000D03*
X155021070Y-78794005D03*
X132080000Y-78740000D03*
X177800000Y-78740000D03*
X134620000Y-78740000D03*
X126925695Y-78794005D03*
X157480000Y-78740000D03*
X137160000Y-78740000D03*
X167640000Y-78740000D03*
X175222847Y-78794005D03*
X144780000Y-78740000D03*
X119380000Y-78740000D03*
X121920000Y-78740000D03*
X160020000Y-78740000D03*
X162560000Y-78740000D03*
X111760000Y-78740000D03*
X124422847Y-78794005D03*
X152325695Y-78794005D03*
X114300000Y-81280000D03*
X157480000Y-81280000D03*
X149822847Y-81334005D03*
X124422847Y-81334005D03*
X167640000Y-81280000D03*
X175222847Y-81334005D03*
X126925695Y-81334005D03*
X134620000Y-81280000D03*
X162560000Y-81280000D03*
X155021070Y-81334005D03*
X147320000Y-81280000D03*
X132080000Y-81280000D03*
X119380000Y-81280000D03*
X144780000Y-81280000D03*
X121920000Y-81280000D03*
X177800000Y-81280000D03*
X165100000Y-81280000D03*
X116840000Y-81280000D03*
X152325695Y-81334005D03*
X111760000Y-81280000D03*
X129621070Y-81334005D03*
X142240000Y-81280000D03*
X139700000Y-81280000D03*
X137160000Y-81280000D03*
X160020000Y-81280000D03*
X172720000Y-81280000D03*
X170180000Y-81280000D03*
X116840000Y-83820000D03*
X157480000Y-83820000D03*
X137160000Y-83820000D03*
X132080000Y-83820000D03*
X167640000Y-83820000D03*
X170180000Y-83820000D03*
X142240000Y-83820000D03*
X165100000Y-83820000D03*
X155021070Y-83874005D03*
X162560000Y-83820000D03*
X111760000Y-83820000D03*
X175222847Y-83874005D03*
X139700000Y-83820000D03*
X144780000Y-83820000D03*
X114300000Y-83820000D03*
X152325695Y-83874005D03*
X124422847Y-83874005D03*
X160020000Y-83820000D03*
X129621070Y-83874005D03*
X121920000Y-83820000D03*
X172720000Y-83820000D03*
X134620000Y-83820000D03*
X126925695Y-83874005D03*
X119380000Y-83820000D03*
X177800000Y-83820000D03*
X147320000Y-83820000D03*
X149822847Y-83874005D03*
X172720000Y-86360000D03*
X137160000Y-86360000D03*
X149822847Y-86414005D03*
X114300000Y-86360000D03*
X167640000Y-86360000D03*
X175222847Y-86414005D03*
X160020000Y-86360000D03*
X177800000Y-86360000D03*
X170180000Y-86360000D03*
X119380000Y-86360000D03*
X132080000Y-86360000D03*
X142240000Y-86360000D03*
X155021070Y-86414005D03*
X152325695Y-86414005D03*
X162560000Y-86360000D03*
X121920000Y-86360000D03*
X116840000Y-86360000D03*
X129621070Y-86414005D03*
X144780000Y-86360000D03*
X157480000Y-86360000D03*
X126925695Y-86414005D03*
X111760000Y-86360000D03*
X147320000Y-86360000D03*
X124422847Y-86414005D03*
X165100000Y-86360000D03*
X139700000Y-86360000D03*
X134620000Y-86360000D03*
X157480000Y-88900000D03*
X119380000Y-88900000D03*
X134620000Y-88900000D03*
X172720000Y-88900000D03*
X170180000Y-88900000D03*
X111760000Y-88900000D03*
X142240000Y-88900000D03*
X124422847Y-88954005D03*
X116840000Y-88900000D03*
X165100000Y-88900000D03*
X137160000Y-88900000D03*
X162560000Y-88900000D03*
X139700000Y-88900000D03*
X152325695Y-88954005D03*
X175222847Y-88954005D03*
X114300000Y-88900000D03*
X121920000Y-88900000D03*
X149822847Y-88954005D03*
X126925695Y-88954005D03*
X132080000Y-88900000D03*
X129621070Y-88954005D03*
X167640000Y-88900000D03*
X177800000Y-88900000D03*
X144780000Y-88900000D03*
X160020000Y-88900000D03*
X147320000Y-88900000D03*
X155021070Y-88954005D03*
X152325695Y-91494005D03*
X116840000Y-91440000D03*
X147320000Y-91440000D03*
X111760000Y-91440000D03*
X162560000Y-91440000D03*
X142240000Y-91440000D03*
X157480000Y-91440000D03*
X155021070Y-91494005D03*
X167640000Y-91440000D03*
X119380000Y-91440000D03*
X139700000Y-91440000D03*
X175222847Y-91494005D03*
X132080000Y-91440000D03*
X177800000Y-91440000D03*
X172720000Y-91440000D03*
X170180000Y-91440000D03*
X137160000Y-91440000D03*
X121920000Y-91440000D03*
X114300000Y-91440000D03*
X144780000Y-91440000D03*
X149822847Y-91494005D03*
X134620000Y-91440000D03*
X126925695Y-91494005D03*
X160020000Y-91440000D03*
X124422847Y-91494005D03*
X165100000Y-91440000D03*
X129621070Y-91494005D03*
X172720000Y-93980000D03*
X165100000Y-93980000D03*
X170180000Y-93980000D03*
X177800000Y-93980000D03*
X114300000Y-93980000D03*
X124422847Y-94034005D03*
X121920000Y-93980000D03*
X116840000Y-93980000D03*
X129621070Y-94034005D03*
X119380000Y-93980000D03*
X139700000Y-93980000D03*
X152325695Y-94034005D03*
X160020000Y-93980000D03*
X167640000Y-93980000D03*
X144780000Y-93980000D03*
X175222847Y-94034005D03*
X162560000Y-93980000D03*
X142240000Y-93980000D03*
X155021070Y-94034005D03*
X132080000Y-93980000D03*
X137160000Y-93980000D03*
X157480000Y-93980000D03*
X111760000Y-93980000D03*
X149822847Y-94034005D03*
X126925695Y-94034005D03*
X147320000Y-93980000D03*
X134620000Y-93980000D03*
X167640000Y-96520000D03*
X157480000Y-96520000D03*
X152325695Y-96574005D03*
X177800000Y-96520000D03*
X121920000Y-96520000D03*
X172720000Y-96520000D03*
X129621070Y-96574005D03*
X144780000Y-96520000D03*
X134620000Y-96520000D03*
X116840000Y-96520000D03*
X124422847Y-96574005D03*
X160020000Y-96520000D03*
X119380000Y-96520000D03*
X170180000Y-96520000D03*
X137160000Y-96520000D03*
X149822847Y-96574005D03*
X155021070Y-96574005D03*
X175222847Y-96574005D03*
X111760000Y-96520000D03*
X114300000Y-96520000D03*
X162560000Y-96520000D03*
X139700000Y-96520000D03*
X132080000Y-96520000D03*
X165100000Y-96520000D03*
X147320000Y-96520000D03*
X126925695Y-96574005D03*
X142240000Y-96520000D03*
X149822847Y-99114005D03*
X157480000Y-99060000D03*
X162560000Y-99060000D03*
X116840000Y-99060000D03*
X172720000Y-99060000D03*
X155021070Y-99114005D03*
X121920000Y-99060000D03*
X137160000Y-99060000D03*
X147320000Y-99060000D03*
X111760000Y-99060000D03*
X152325695Y-99114005D03*
X114300000Y-99060000D03*
X129621070Y-99114005D03*
X139700000Y-99060000D03*
X177800000Y-99060000D03*
X132080000Y-99060000D03*
X167640000Y-99060000D03*
X142240000Y-99060000D03*
X144780000Y-99060000D03*
X124422847Y-99114005D03*
X175222847Y-99114005D03*
X134620000Y-99060000D03*
X119380000Y-99060000D03*
X126925695Y-99114005D03*
X165100000Y-99060000D03*
X160020000Y-99060000D03*
X170180000Y-99060000D03*
X111760000Y-101600000D03*
X149822847Y-101654005D03*
X132080000Y-101600000D03*
X126925695Y-101654005D03*
X121920000Y-101600000D03*
X142240000Y-101600000D03*
X157480000Y-101600000D03*
X165100000Y-101600000D03*
X134620000Y-101600000D03*
X124422847Y-101654005D03*
X175222847Y-101654005D03*
X162560000Y-101600000D03*
X116840000Y-101600000D03*
X137160000Y-101600000D03*
X129621070Y-101654005D03*
X172720000Y-101600000D03*
X155021070Y-101654005D03*
X160020000Y-101600000D03*
X177800000Y-101600000D03*
X167640000Y-101600000D03*
X147320000Y-101600000D03*
X114300000Y-101600000D03*
X152325695Y-101654005D03*
X170180000Y-101600000D03*
X119380000Y-101600000D03*
X139700000Y-101600000D03*
X144780000Y-101600000D03*
X114300000Y-104140000D03*
X126925695Y-104194005D03*
X152325695Y-104194005D03*
X165100000Y-104140000D03*
X134620000Y-104140000D03*
X119380000Y-104140000D03*
X155021070Y-104194005D03*
X111760000Y-104140000D03*
X177800000Y-104140000D03*
X147320000Y-104140000D03*
X175222847Y-104194005D03*
X129621070Y-104194005D03*
X144780000Y-104140000D03*
X121920000Y-104140000D03*
X149822847Y-104194005D03*
X137160000Y-104140000D03*
X160020000Y-104140000D03*
X170180000Y-104140000D03*
X167640000Y-104140000D03*
X139700000Y-104140000D03*
X142240000Y-104140000D03*
X124422847Y-104194005D03*
X162560000Y-104140000D03*
X157480000Y-104140000D03*
X172720000Y-104140000D03*
X132080000Y-104140000D03*
X116840000Y-104140000D03*
X175222847Y-106734005D03*
X139700000Y-106680000D03*
X134620000Y-106680000D03*
X126925695Y-106734005D03*
X111760000Y-106680000D03*
X147320000Y-106680000D03*
X124422847Y-106734005D03*
X116840000Y-106680000D03*
X160020000Y-106680000D03*
X144780000Y-106680000D03*
X132080000Y-106680000D03*
X155021070Y-106734005D03*
X162560000Y-106680000D03*
X119380000Y-106680000D03*
X167640000Y-106680000D03*
X165100000Y-106680000D03*
X137160000Y-106680000D03*
X177800000Y-106680000D03*
X114300000Y-106680000D03*
X152325695Y-106734005D03*
X172720000Y-106680000D03*
X157480000Y-106680000D03*
X170180000Y-106680000D03*
X129621070Y-106734005D03*
X121920000Y-106680000D03*
X149822847Y-106734005D03*
X142240000Y-106680000D03*
X124422847Y-109274005D03*
X137160000Y-109220000D03*
X111760000Y-109220000D03*
X129621070Y-109274005D03*
X119380000Y-109220000D03*
X175222847Y-109274005D03*
X160020000Y-109220000D03*
X149822847Y-109274005D03*
X126925695Y-109274005D03*
X144780000Y-109220000D03*
X116840000Y-109220000D03*
X121920000Y-109220000D03*
X157480000Y-109220000D03*
X142240000Y-109220000D03*
X114300000Y-109220000D03*
X139700000Y-109220000D03*
X147320000Y-109220000D03*
X172720000Y-109220000D03*
X165100000Y-109220000D03*
X162560000Y-109220000D03*
X152325695Y-109274005D03*
X132080000Y-109220000D03*
X134620000Y-109220000D03*
X155021070Y-109274005D03*
X170180000Y-109220000D03*
X177800000Y-109220000D03*
X167640000Y-109220000D03*
X162560000Y-111760000D03*
X126925695Y-111814005D03*
X132080000Y-111760000D03*
X157480000Y-111760000D03*
X155021070Y-111814005D03*
X134620000Y-111760000D03*
X175222847Y-111814005D03*
X160020000Y-111760000D03*
X139700000Y-111760000D03*
X116840000Y-111760000D03*
X121920000Y-111760000D03*
X152325695Y-111814005D03*
X142240000Y-111760000D03*
X167640000Y-111760000D03*
X165100000Y-111760000D03*
X129621070Y-111814005D03*
X137160000Y-111760000D03*
X170180000Y-111760000D03*
X124422847Y-111814005D03*
X119380000Y-111760000D03*
X147320000Y-111760000D03*
X172720000Y-111760000D03*
X177800000Y-111760000D03*
X111760000Y-111760000D03*
X114300000Y-111760000D03*
X144780000Y-111760000D03*
X149822847Y-111814005D03*
X172720000Y-114300000D03*
X111760000Y-114300000D03*
X121920000Y-114300000D03*
X119380000Y-114300000D03*
X157480000Y-114300000D03*
X167640000Y-114300000D03*
X162560000Y-114300000D03*
X155021070Y-114354005D03*
X147320000Y-114300000D03*
X144780000Y-114300000D03*
X137160000Y-114300000D03*
X126925695Y-114354005D03*
X142240000Y-114300000D03*
X124422847Y-114354005D03*
X114300000Y-114300000D03*
X175222847Y-114354005D03*
X177800000Y-114300000D03*
X134620000Y-114300000D03*
X132080000Y-114300000D03*
X152325695Y-114354005D03*
X129621070Y-114354005D03*
X139700000Y-114300000D03*
X165100000Y-114300000D03*
X170180000Y-114300000D03*
X116840000Y-114300000D03*
X149822847Y-114354005D03*
X160020000Y-114300000D03*
X149822847Y-116894005D03*
X142240000Y-116840000D03*
X116840000Y-116840000D03*
X155021070Y-116894005D03*
X126925695Y-116894005D03*
X129621070Y-116894005D03*
X137160000Y-116840000D03*
X132080000Y-116840000D03*
X139700000Y-116840000D03*
X152325695Y-116894005D03*
X160020000Y-116840000D03*
X114300000Y-116840000D03*
X144780000Y-116840000D03*
X119380000Y-116840000D03*
X170180000Y-116840000D03*
X124422847Y-116894005D03*
X121920000Y-116840000D03*
X162560000Y-116840000D03*
X157480000Y-116840000D03*
X172720000Y-116840000D03*
X111760000Y-116840000D03*
X177800000Y-116840000D03*
X147320000Y-116840000D03*
X134620000Y-116840000D03*
X175222847Y-116894005D03*
X165100000Y-116840000D03*
X167640000Y-116840000D03*
X132080000Y-119380000D03*
X157480000Y-119380000D03*
X172720000Y-119380000D03*
X124422847Y-119434005D03*
X111760000Y-119380000D03*
X129621070Y-119434005D03*
X152325695Y-119434005D03*
X134620000Y-119380000D03*
X177800000Y-119380000D03*
X139700000Y-119380000D03*
X149822847Y-119434005D03*
X147320000Y-119380000D03*
X160020000Y-119380000D03*
X167640000Y-119380000D03*
X126925695Y-119434005D03*
X137160000Y-119380000D03*
X114300000Y-119380000D03*
X119380000Y-119380000D03*
X170180000Y-119380000D03*
X116840000Y-119380000D03*
X162560000Y-119380000D03*
X144780000Y-119380000D03*
X155021070Y-119434005D03*
X175222847Y-119434005D03*
X142240000Y-119380000D03*
X121920000Y-119380000D03*
X165100000Y-119380000D03*
X172720000Y-121920000D03*
X152325695Y-121974005D03*
X157480000Y-121920000D03*
X147320000Y-121920000D03*
X139700000Y-121920000D03*
X149822847Y-121974005D03*
X134620000Y-121920000D03*
X114300000Y-121920000D03*
X175222847Y-121974005D03*
X162560000Y-121920000D03*
X137160000Y-121920000D03*
X142240000Y-121920000D03*
X170180000Y-121920000D03*
X124422847Y-121974005D03*
X160020000Y-121920000D03*
X116840000Y-121920000D03*
X167640000Y-121920000D03*
X165100000Y-121920000D03*
X132080000Y-121920000D03*
X129621070Y-121974005D03*
X144780000Y-121920000D03*
X111760000Y-121920000D03*
X126925695Y-121974005D03*
X155021070Y-121974005D03*
X121920000Y-121920000D03*
X177800000Y-121920000D03*
X119380000Y-121920000D03*
X152325695Y-124514005D03*
X139700000Y-124460000D03*
X167640000Y-124460000D03*
X165100000Y-124460000D03*
X157480000Y-124460000D03*
X124422847Y-124514005D03*
X111760000Y-124460000D03*
X177800000Y-124460000D03*
X144780000Y-124460000D03*
X121920000Y-124460000D03*
X137160000Y-124460000D03*
X170180000Y-124460000D03*
X155021070Y-124514005D03*
X175222847Y-124514005D03*
X147320000Y-124460000D03*
X126925695Y-124514005D03*
X162560000Y-124460000D03*
X132080000Y-124460000D03*
X149822847Y-124514005D03*
X172720000Y-124460000D03*
X160020000Y-124460000D03*
X116840000Y-124460000D03*
X114300000Y-124460000D03*
X142240000Y-124460000D03*
X119380000Y-124460000D03*
X129621070Y-124514005D03*
X134620000Y-124460000D03*
X170180000Y-127000000D03*
X165100000Y-127000000D03*
X162560000Y-127000000D03*
X114300000Y-127000000D03*
X132080000Y-127000000D03*
X134620000Y-127000000D03*
X177800000Y-127000000D03*
X129621070Y-127054005D03*
X121920000Y-127000000D03*
X160020000Y-127000000D03*
X172720000Y-127000000D03*
X149822847Y-127054005D03*
X137160000Y-127000000D03*
X157480000Y-127000000D03*
X116840000Y-127000000D03*
X155021070Y-127054005D03*
X147320000Y-127000000D03*
X139700000Y-127000000D03*
X142240000Y-127000000D03*
X124422847Y-127054005D03*
X175222847Y-127054005D03*
X126925695Y-127054005D03*
X111760000Y-127000000D03*
X152325695Y-127054005D03*
X167640000Y-127000000D03*
X119380000Y-127000000D03*
X144780000Y-127000000D03*
X124422847Y-129594005D03*
X114300000Y-129540000D03*
X177800000Y-129540000D03*
X111760000Y-129540000D03*
X129621070Y-129594005D03*
X116840000Y-129540000D03*
X170180000Y-129540000D03*
X175222847Y-129594005D03*
X165100000Y-129540000D03*
X157480000Y-129540000D03*
X162560000Y-129540000D03*
X137160000Y-129540000D03*
X147320000Y-129540000D03*
X139700000Y-129540000D03*
X167640000Y-129540000D03*
X126925695Y-129594005D03*
X172720000Y-129540000D03*
X152325695Y-129594005D03*
X149822847Y-129594005D03*
X144780000Y-129540000D03*
X119380000Y-129540000D03*
X121920000Y-129540000D03*
X160020000Y-129540000D03*
X132080000Y-129540000D03*
X134620000Y-129540000D03*
X142240000Y-129540000D03*
X155021070Y-129594005D03*
X109220000Y-71120000D03*
X109220000Y-73660000D03*
X109220000Y-76200000D03*
X109220000Y-78740000D03*
X109220000Y-81280000D03*
X109220000Y-83820000D03*
X109220000Y-86360000D03*
X109220000Y-88900000D03*
X109220000Y-91440000D03*
X109220000Y-93980000D03*
X109220000Y-96520000D03*
X109220000Y-99060000D03*
X109220000Y-101600000D03*
X109220000Y-104140000D03*
X109220000Y-106680000D03*
X109220000Y-109220000D03*
X109220000Y-111760000D03*
X109220000Y-114300000D03*
X109220000Y-116840000D03*
X109220000Y-119380000D03*
X109220000Y-121920000D03*
X109220000Y-124460000D03*
X109220000Y-127000000D03*
X109220000Y-129540000D03*
%TD*%
M02*
